<svg width="150" height="150" viewBox="0 0 150 150" fill="none" xmlns="http://www.w3.org/2000/svg">
<path d="M118.75 18.75H31.25C24.375 18.75 18.75 24.375 18.75 31.25V75C18.75 81.875 24.375 87.5 31.25 87.5H118.75C125.625 87.5 131.25 81.875 131.25 75V31.25C131.25 24.375 125.625 18.75 118.75 18.75ZM31.25 62.5H50.8125C52.125 67.375 55 71.6875 58.75 75H31.25V62.5ZM118.75 75H91.25C95 71.6875 97.875 67.375 99.1875 62.5H118.75V75ZM118.75 50H87.5V56.25C87.5 62.9375 81.6875 68.75 75 68.75C68.3125 68.75 62.5 62.9375 62.5 56.25V50H31.25V31.25H118.75V50ZM87.5 93.75V100C87.5 102.938 86.3125 105.625 84.5 107.812C82.1875 110.625 78.75 112.5 75 112.5C71.25 112.5 67.8125 110.625 65.5 107.812C63.6875 105.625 62.5 102.938 62.5 100V93.75H18.75V118.75C18.75 125.625 24.375 131.25 31.25 131.25H118.75C125.625 131.25 131.25 125.625 131.25 118.75V93.75H87.5ZM31.25 106.25H50.8125C50.9375 106.812 51.1875 107.312 51.375 107.812C52.875 112.062 55.4375 115.812 58.75 118.75H31.25V106.25ZM118.75 118.75H91.25C94.625 115.812 97.1875 112.062 98.625 107.812C98.8125 107.312 99.0625 106.812 99.1875 106.25H118.75V118.75Z" fill="#E91E63" fill-opacity="0.54"/>
<path opacity="0.3" d="M50.8125 62.5H31.25V75H58.75C55 71.6875 52.125 67.375 50.8125 62.5ZM91.25 75H118.75V62.5H99.1875C97.875 67.375 95 71.6875 91.25 75ZM51.375 107.812C51.1875 107.312 51 106.812 50.8125 106.25H31.25V118.75H58.75C55.4375 115.812 52.875 112.062 51.375 107.812ZM99.1875 106.25C99.0625 106.812 98.8125 107.312 98.625 107.812C97.1875 112.062 94.625 115.812 91.25 118.75H118.75V106.25H99.1875Z" fill="#E91E63" fill-opacity="0.54"/>
</svg>
