<svg width="150" height="150" viewBox="0 0 150 150" fill="none" xmlns="http://www.w3.org/2000/svg">
<path opacity="0.5" d="M109.375 125C118.004 125 125 118.004 125 109.375C125 100.746 118.004 93.75 109.375 93.75C100.746 93.75 93.75 100.746 93.75 109.375C93.75 118.004 100.746 125 109.375 125Z" fill="#D50000" fill-opacity="0.54"/>
<path opacity="0.5" d="M31.25 96.875H56.25V121.875H31.25V96.875Z" fill="#D50000" fill-opacity="0.54"/>
<path opacity="0.5" d="M75 36.5001L62.9375 56.2501H87.0625L75 36.5001Z" fill="#D50000" fill-opacity="0.54"/>
<path fill-rule="evenodd" clip-rule="evenodd" d="M40.625 68.75L75 12.5L109.375 68.75H40.625ZM87.0625 56.2501L75 36.5001L62.875 56.2501H87.0625Z" fill="#D50000" fill-opacity="0.54"/>
<path fill-rule="evenodd" clip-rule="evenodd" d="M81.25 109.375C81.25 93.8125 93.8125 81.25 109.375 81.25C124.938 81.25 137.5 93.8125 137.5 109.375C137.5 124.938 124.938 137.5 109.375 137.5C93.8125 137.5 81.25 124.938 81.25 109.375ZM93.75 109.375C93.75 118 100.75 125 109.375 125C118 125 125 118 125 109.375C125 100.75 118 93.75 109.375 93.75C100.75 93.75 93.75 100.75 93.75 109.375Z" fill="#D50000" fill-opacity="0.54"/>
<path fill-rule="evenodd" clip-rule="evenodd" d="M18.75 84.375H68.75V134.375H18.75V84.375ZM31.25 121.875H56.25V96.875H31.25V121.875Z" fill="#D50000" fill-opacity="0.54"/>
</svg>
