<svg width="150" height="150" viewBox="0 0 150 150" fill="none" xmlns="http://www.w3.org/2000/svg">
<path fill-rule="evenodd" clip-rule="evenodd" d="M125 18.75H118.75V6.25H106.25V18.75H43.75V6.25H31.25V18.75H25C18.125 18.75 12.5 24.375 12.5 31.25V131.25C12.5 138.125 18.125 143.75 25 143.75H125C131.875 143.75 137.5 138.125 137.5 131.25V31.25C137.5 24.375 131.875 18.75 125 18.75ZM125 31.25V50H25V31.25H125ZM25 62.5V131.25H125V62.5H25Z" fill="#FFD600" fill-opacity="0.54"/>
<path opacity="0.5" d="M25 31.3125H125V50H25V31.3125Z" fill="#FFD600" fill-opacity="0.54"/>
<path d="M55.3935 105.544H43.8655L42.0175 111H34.1415L45.3175 80.112H54.0295L65.2055 111H57.2415L55.3935 105.544ZM53.4575 99.736L49.6295 88.428L45.8455 99.736H53.4575ZM76.1309 89.924C76.8642 88.78 77.8762 87.856 79.1669 87.152C80.4576 86.448 81.9682 86.096 83.6989 86.096C85.7229 86.096 87.5562 86.6093 89.1989 87.636C90.8416 88.6627 92.1322 90.1293 93.0709 92.036C94.0389 93.9427 94.5229 96.1573 94.5229 98.68C94.5229 101.203 94.0389 103.432 93.0709 105.368C92.1322 107.275 90.8416 108.756 89.1989 109.812C87.5562 110.839 85.7229 111.352 83.6989 111.352C81.9976 111.352 80.4869 111 79.1669 110.296C77.8762 109.592 76.8642 108.683 76.1309 107.568V122.704H68.6069V86.448H76.1309V89.924ZM86.8669 98.68C86.8669 96.8027 86.3389 95.336 85.2829 94.28C84.2562 93.1947 82.9802 92.652 81.4549 92.652C79.9589 92.652 78.6829 93.1947 77.6269 94.28C76.6002 95.3653 76.0869 96.8467 76.0869 98.724C76.0869 100.601 76.6002 102.083 77.6269 103.168C78.6829 104.253 79.9589 104.796 81.4549 104.796C82.9509 104.796 84.2269 104.253 85.2829 103.168C86.3389 102.053 86.8669 100.557 86.8669 98.68ZM105.994 90.54C106.874 89.1907 107.974 88.1347 109.294 87.372C110.614 86.58 112.081 86.184 113.694 86.184V94.148H111.626C109.749 94.148 108.341 94.5587 107.402 95.38C106.464 96.172 105.994 97.58 105.994 99.604V111H98.4702V86.448H105.994V90.54Z" fill="#FFD600" fill-opacity="0.54"/>
</svg>
