<svg width="150" height="150" viewBox="0 0 150 150" fill="none" xmlns="http://www.w3.org/2000/svg">
<path opacity="0.3" d="M31.25 118.75H118.75V50H31.25V118.75ZM65.9375 81.25V62.5H84.125V81.25H100L75 106.25L50 81.25H65.9375Z" fill="#8F00FF" fill-opacity="0.54"/>
<path d="M100 81.25H84.0625V62.5H65.9375V81.25H50L75 106.25L100 81.25ZM128.375 32.6875L119.688 22.1875C118 20.0625 115.438 18.75 112.5 18.75H37.5C34.5625 18.75 32 20.0625 30.25 22.1875L21.625 32.6875C19.8125 34.8125 18.75 37.625 18.75 40.625V118.75C18.75 125.625 24.375 131.25 31.25 131.25H118.75C125.625 131.25 131.25 125.625 131.25 118.75V40.625C131.25 37.625 130.188 34.8125 128.375 32.6875ZM39 31.25H111L116.062 37.3125H34L39 31.25ZM118.75 118.75H31.25V50H118.75V118.75Z" fill="#8F00FF" fill-opacity="0.54"/>
</svg>
