<svg width="150" height="150" viewBox="0 0 150 150" fill="none" xmlns="http://www.w3.org/2000/svg">
<path opacity="0.5" d="M62.5 118.75C69.4036 118.75 75 113.154 75 106.25C75 99.3464 69.4036 93.75 62.5 93.75C55.5964 93.75 50 99.3464 50 106.25C50 113.154 55.5964 118.75 62.5 118.75Z" fill="#3D5AFE" fill-opacity="0.54"/>
<path fill-rule="evenodd" clip-rule="evenodd" d="M87.5 106.25C87.5 120.062 76.3125 131.25 62.5 131.25C48.6875 131.25 37.5 120.062 37.5 106.25C37.5 92.4375 48.6875 81.25 62.5 81.25C67.0625 81.25 71.3125 82.5625 75 84.6875V18.75H112.5V43.75H87.5V106.25ZM75 106.25C75 99.375 69.375 93.75 62.5 93.75C55.625 93.75 50 99.375 50 106.25C50 113.125 55.625 118.75 62.5 118.75C69.375 118.75 75 113.125 75 106.25Z" fill="#3D5AFE" fill-opacity="0.54"/>
</svg>
