<svg width="150" height="150" viewBox="0 0 150 150" fill="none" xmlns="http://www.w3.org/2000/svg">
<path fill-rule="evenodd" clip-rule="evenodd" d="M125 18.75H118.75V6.25H106.25V18.75H43.75V6.25H31.25V18.75H25C18.125 18.75 12.5 24.375 12.5 31.25V131.25C12.5 138.125 18.125 143.75 25 143.75H125C131.875 143.75 137.5 138.125 137.5 131.25V31.25C137.5 24.375 131.875 18.75 125 18.75ZM125 31.25V50H25V31.25H125ZM25 62.5V131.25H125V62.5H25Z" fill="#40C4FF" fill-opacity="0.54"/>
<path opacity="0.5" d="M25 31.3125H125V50H25V31.3125Z" fill="#40C4FF" fill-opacity="0.54"/>
<path d="M49.9794 105.544H38.4514L36.6034 111H28.7274L39.9034 80.112H48.6154L59.7914 111H51.8274L49.9794 105.544ZM48.0434 99.736L44.2154 88.428L40.4314 99.736H48.0434ZM87.4368 86.448V111H79.9128V107.656C79.1502 108.741 78.1088 109.621 76.7888 110.296C75.4982 110.941 74.0608 111.264 72.4768 111.264C70.5995 111.264 68.9422 110.853 67.5048 110.032C66.0675 109.181 64.9528 107.964 64.1608 106.38C63.3688 104.796 62.9728 102.933 62.9728 100.792V86.448H70.4528V99.78C70.4528 101.423 70.8782 102.699 71.7288 103.608C72.5795 104.517 73.7235 104.972 75.1608 104.972C76.6275 104.972 77.7862 104.517 78.6368 103.608C79.4875 102.699 79.9128 101.423 79.9128 99.78V86.448H87.4368ZM102.169 86.096C103.9 86.096 105.411 86.448 106.701 87.152C108.021 87.856 109.033 88.78 109.737 89.924V86.448H117.261V110.956C117.261 113.215 116.807 115.253 115.897 117.072C115.017 118.92 113.653 120.387 111.805 121.472C109.987 122.557 107.713 123.1 104.985 123.1C101.348 123.1 98.3999 122.235 96.1413 120.504C93.8826 118.803 92.5919 116.485 92.2693 113.552H99.7053C99.9399 114.491 100.497 115.224 101.377 115.752C102.257 116.309 103.343 116.588 104.633 116.588C106.188 116.588 107.42 116.133 108.329 115.224C109.268 114.344 109.737 112.921 109.737 110.956V107.48C109.004 108.624 107.992 109.563 106.701 110.296C105.411 111 103.9 111.352 102.169 111.352C100.145 111.352 98.3119 110.839 96.6693 109.812C95.0266 108.756 93.7213 107.275 92.7533 105.368C91.8146 103.432 91.3453 101.203 91.3453 98.68C91.3453 96.1573 91.8146 93.9427 92.7533 92.036C93.7213 90.1293 95.0266 88.6627 96.6693 87.636C98.3119 86.6093 100.145 86.096 102.169 86.096ZM109.737 98.724C109.737 96.8467 109.209 95.3653 108.153 94.28C107.127 93.1947 105.865 92.652 104.369 92.652C102.873 92.652 101.597 93.1947 100.541 94.28C99.5146 95.336 99.0013 96.8027 99.0013 98.68C99.0013 100.557 99.5146 102.053 100.541 103.168C101.597 104.253 102.873 104.796 104.369 104.796C105.865 104.796 107.127 104.253 108.153 103.168C109.209 102.083 109.737 100.601 109.737 98.724Z" fill="#40C4FF" fill-opacity="0.54"/>
</svg>
