<svg width="150" height="150" viewBox="0 0 150 150" fill="none" xmlns="http://www.w3.org/2000/svg">
<path opacity="0.3" d="M80.4032 28.2458L74.53 30.3833L85.2175 59.7489L91.0906 57.6114L80.4032 28.2458Z" fill="#00E676" fill-opacity="0.54"/>
<path opacity="0.3" d="M65.625 56.25C69.0768 56.25 71.875 53.4518 71.875 50C71.875 46.5482 69.0768 43.75 65.625 43.75C62.1732 43.75 59.375 46.5482 59.375 50C59.375 53.4518 62.1732 56.25 65.625 56.25Z" fill="#00E676" fill-opacity="0.54"/>
<path d="M43.75 118.75C36.875 118.75 31.25 124.375 31.25 131.25H118.75C118.75 124.375 113.125 118.75 106.25 118.75H81.25V106.25H100C106.875 106.25 112.5 100.625 112.5 93.75H62.5C52.125 93.75 43.75 85.375 43.75 75C43.75 68.1875 47.4375 62.25 52.9375 58.9375C55.5 62.625 59.5625 65.1875 64.375 65.5625C68.75 65.9375 72.875 64.375 75.9375 61.6875L79.625 71.75L85.5 69.625L87.625 75.5L99.375 71.25L97.25 65.375L103.125 63.25L86 16.25L80.125 18.375L78 12.5L66.25 16.75L68.375 22.625L62.5 24.8125L66 34.5C58.6875 34.25 52.3125 39.1875 50.5 46.125C39.1875 50.875 31.25 62 31.25 75C31.25 92.25 45.25 106.25 62.5 106.25V118.75H43.75ZM80.375 28.25L91.0625 57.625L85.1875 59.75L74.5 30.375L80.375 28.25ZM65.625 43.75C69.0625 43.75 71.875 46.5625 71.875 50C71.875 53.4375 69.0625 56.25 65.625 56.25C62.1875 56.25 59.375 53.4375 59.375 50C59.375 46.5625 62.1875 43.75 65.625 43.75Z" fill="#00E676" fill-opacity="0.54"/>
</svg>
