<svg width="150" height="150" viewBox="0 0 150 150" fill="none" xmlns="http://www.w3.org/2000/svg">
<path opacity="0.3" d="M81.25 81.25L62.5 67.1875L43.75 81.25V25H37.5V125H112.5V25H81.25V81.25Z" fill="#00E676" fill-opacity="0.54"/>
<path d="M112.5 12.5H37.5C30.625 12.5 25 18.125 25 25V125C25 131.875 30.625 137.5 37.5 137.5H112.5C119.375 137.5 125 131.875 125 125V25C125 18.125 119.375 12.5 112.5 12.5ZM56.25 25H68.75V56.25L62.5 51.5625L56.25 56.25V25ZM112.5 125H37.5V25H43.75V81.25L62.5 67.1875L81.25 81.25V25H112.5V125Z" fill="#00E676" fill-opacity="0.54"/>
</svg>
