<svg width="150" height="150" viewBox="0 0 150 150" fill="none" xmlns="http://www.w3.org/2000/svg">
<path opacity="0.5" d="M25 50H125V118.75H25V50Z" fill="#FDD835" fill-opacity="0.54"/>
<path fill-rule="evenodd" clip-rule="evenodd" d="M125 37.5H100V25C100 18.0625 94.4375 12.5 87.5 12.5H62.5C55.5625 12.5 50 18.0625 50 25V37.5H25C18.0625 37.5 12.5625 43.0625 12.5625 50L12.5 118.75C12.5 125.688 18.0625 131.25 25 131.25H125C131.938 131.25 137.5 125.688 137.5 118.75V50C137.5 43.0625 131.938 37.5 125 37.5ZM62.5 25H87.5V37.5H62.5V25ZM25 118.75H125V50H25V118.75Z" fill="#FDD835" fill-opacity="0.54"/>
</svg>
