<svg width="150" height="150" viewBox="0 0 150 150" fill="none" xmlns="http://www.w3.org/2000/svg">
<path opacity="0.3" d="M87.5 53.6878L81.25 50.0628V25.3128H68.75V50.0628L62.5 53.6878C54.75 58.1878 50 66.4378 50 75.3128C50 89.1253 61.1875 100.313 75 100.313C88.8125 100.313 100 89.1253 100 75.3128C100 66.4378 95.1875 58.1878 87.5 53.6878Z" fill="#FFD600" fill-opacity="0.54"/>
<path d="M22.1875 119.313L31 128.125L42.1875 116.875L33.375 108.063L22.1875 119.313ZM68.75 125H81.25V143.75H68.75V125ZM6.25 68.7503H25V81.2503H6.25V68.7503ZM93.75 42.8753V12.8128H56.25V42.8753C45.0625 49.3753 37.5 61.4378 37.5 75.3128C37.5 96.0003 54.3125 112.813 75 112.813C95.6875 112.813 112.5 96.0003 112.5 75.3128C112.5 61.4378 104.938 49.3753 93.75 42.8753ZM75 100.313C61.1875 100.313 50 89.1253 50 75.3128C50 66.4378 54.8125 58.1878 62.5 53.6878L68.75 50.0628V25.3128H81.25V50.0628L87.5 53.6878C95.25 58.1878 100 66.4378 100 75.3128C100 89.1253 88.8125 100.313 75 100.313ZM125 68.7503H143.75V81.2503H125V68.7503ZM107.75 116.938L118.938 128.188L127.75 119.375L116.5 108.188L107.75 116.938Z" fill="#FFD600" fill-opacity="0.54"/>
</svg>
