<svg width="150" height="150" viewBox="0 0 150 150" fill="none" xmlns="http://www.w3.org/2000/svg">
<path d="M6.26221 137.375C6.26221 140.875 9.07471 143.688 12.5747 143.688H93.7622C97.2622 143.688 100.075 140.875 100.075 137.375V131.25H6.26221V137.375Z" fill="#FF6D00" fill-opacity="0.54"/>
<path opacity="0.3" d="M53.0953 68.7013C44.2203 68.7013 29.5328 71.5763 22.5953 81.2638H83.6578C76.6578 71.5763 61.9703 68.7013 53.0953 68.7013Z" fill="#FF6D00" fill-opacity="0.54"/>
<path d="M53.1372 56.1631C29.6997 56.1631 6.26221 68.7255 6.26221 93.7255H100.012C100.012 68.7255 76.5747 56.1631 53.1372 56.1631ZM22.6372 81.2255C29.5747 71.538 44.3247 68.663 53.1372 68.663C61.9497 68.663 76.6997 71.538 83.6372 81.2255H22.6372ZM6.26221 106.226H100.012V118.726H6.26221V106.226ZM112.512 31.2256V6.22559H100.012V31.2256H68.7622L70.1997 43.7256H129.95L121.2 131.226H112.512V143.725H123.262C128.512 143.725 132.825 139.663 133.45 134.538L143.762 31.2256H112.512Z" fill="#FF6D00" fill-opacity="0.54"/>
</svg>
