<svg width="150" height="150" viewBox="0 0 150 150" fill="none" xmlns="http://www.w3.org/2000/svg">
<path opacity="0.5" fill-rule="evenodd" clip-rule="evenodd" d="M12.5 31.25H137.5V118.75H12.5V31.25ZM75 56.25C75 45.9375 66.5625 37.5 56.25 37.5C45.9375 37.5 37.5 45.9375 37.5 56.25C37.5 66.5625 45.9375 75 56.25 75C66.5625 75 75 66.5625 75 56.25ZM18.75 112.5V103.688C18.75 88 43.5625 81.25 56.25 81.25C68.9375 81.25 93.75 88 93.75 103.625V112.5H18.75ZM121.812 87.5H111.562C110.188 83.5625 109.375 79.375 109.375 75C109.375 70.625 110.188 66.4375 111.562 62.5H121.812L131.25 50L118.812 37.5625C110.625 43.6875 104.562 52.375 101.75 62.5C100.625 66.5 100 70.6875 100 75C100 79.3125 100.625 83.5 101.75 87.5C104.562 97.5625 110.625 106.312 118.812 112.437L131.25 100L121.812 87.5Z" fill="#1DE9B6" fill-opacity="0.54"/>
<path fill-rule="evenodd" clip-rule="evenodd" d="M137.5 131.25H12.5C5.625 131.25 0 125.625 0 118.75V31.25C0 24.375 5.625 18.75 12.5 18.75H137.5C144.375 18.75 150 24.375 150 31.25L149.938 118.75C149.938 125.625 144.375 131.25 137.5 131.25ZM137.5 31.25H12.5V118.75H137.5V31.25Z" fill="#1DE9B6" fill-opacity="0.54"/>
<path d="M121.812 62.5L131.25 50L118.812 37.5625C110.625 43.6875 104.562 52.375 101.75 62.5C100.625 66.5 100 70.6875 100 75C100 79.3125 100.625 83.5 101.75 87.5C104.562 97.5625 110.625 106.312 118.812 112.437L131.25 100L121.812 87.5H111.562C110.188 83.5625 109.375 79.375 109.375 75C109.375 70.625 110.188 66.4375 111.562 62.5H121.812Z" fill="#1DE9B6" fill-opacity="0.54"/>
<path fill-rule="evenodd" clip-rule="evenodd" d="M75 56.25C75 66.5625 66.5625 75 56.25 75C45.9375 75 37.5 66.5625 37.5 56.25C37.5 45.9375 45.9375 37.5 56.25 37.5C66.5625 37.5 75 45.9375 75 56.25ZM62.5 56.25C62.5 52.8125 59.6875 50 56.25 50C52.8125 50 50 52.8125 50 56.25C50 59.6875 52.8125 62.5 56.25 62.5C59.6875 62.5 62.5 59.6875 62.5 56.25Z" fill="#1DE9B6" fill-opacity="0.54"/>
<path fill-rule="evenodd" clip-rule="evenodd" d="M18.75 103.625C18.75 88 43.5625 81.25 56.25 81.25C68.9375 81.25 93.75 88 93.75 103.688V112.5H18.75V103.625ZM56.25 93.75C48.125 93.75 38.875 96.875 34.25 100H78.25C73.5625 96.8125 64.375 93.75 56.25 93.75Z" fill="#1DE9B6" fill-opacity="0.54"/>
</svg>
