<svg width="150" height="150" viewBox="0 0 150 150" fill="none" xmlns="http://www.w3.org/2000/svg">
<path opacity="0.3" d="M31.25 118.75H118.75V31.25H31.25V118.75ZM81.4375 44.125L88.0625 37.5L96.875 46.3125L105.688 37.5L112.312 44.125L103.5 52.9375L112.312 61.75L105.688 68.375L96.875 59.625L88.0625 68.4375L81.4375 61.8125L90.25 53L81.4375 44.125ZM81.25 82.8125H112.5V92.1875H81.25V82.8125ZM81.25 98.4375H112.5V107.812H81.25V98.4375ZM39.0625 48.25H70.3125V57.625H39.0625V48.25ZM37.5 90.625H50V78.125H59.375V90.625H71.875V100H59.375V112.5H50V100H37.5V90.625Z" fill="#8F00FF" fill-opacity="0.54"/>
<path d="M118.75 18.75H31.25C24.375 18.75 18.75 24.375 18.75 31.25V118.75C18.75 125.625 24.375 131.25 31.25 131.25H118.75C125.625 131.25 131.25 125.625 131.25 118.75V31.25C131.25 24.375 125.625 18.75 118.75 18.75ZM118.75 118.75H31.25V31.25H118.75V118.75Z" fill="#8F00FF" fill-opacity="0.54"/>
<path d="M70.3125 48.2498H39.0625V57.6249H70.3125V48.2498Z" fill="#8F00FF" fill-opacity="0.54"/>
<path d="M112.5 98.4375H81.25V107.812H112.5V98.4375Z" fill="#8F00FF" fill-opacity="0.54"/>
<path d="M112.5 82.8125H81.25V92.1875H112.5V82.8125Z" fill="#8F00FF" fill-opacity="0.54"/>
<path d="M50 112.5H59.375V100H71.875V90.625H59.375V78.125H50V90.625H37.5V100H50V112.5Z" fill="#8F00FF" fill-opacity="0.54"/>
<path d="M88.0627 68.4375L96.8752 59.625L105.688 68.4375L112.313 61.8125L103.5 52.9375L112.313 44.125L105.688 37.5L96.8752 46.3125L88.0627 37.5L81.4377 44.125L90.2502 52.9375L81.4377 61.8125L88.0627 68.4375Z" fill="#8F00FF" fill-opacity="0.54"/>
</svg>
