<svg width="150" height="150" viewBox="0 0 150 150" fill="none" xmlns="http://www.w3.org/2000/svg">
<path opacity="0.5" fill-rule="evenodd" clip-rule="evenodd" d="M31.25 106.25H118.75V75H31.25V106.25ZM103.125 81.25C108.312 81.25 112.5 85.4375 112.5 90.625C112.5 95.8125 108.312 100 103.125 100C97.9375 100 93.75 95.8125 93.75 90.625C93.75 85.4375 97.9375 81.25 103.125 81.25ZM56.25 90.625C56.25 85.4375 52.0625 81.25 46.875 81.25C41.6875 81.25 37.5 85.4375 37.5 90.625C37.5 95.8125 41.6875 100 46.875 100C52.0625 100 56.25 95.8125 56.25 90.625Z" fill="#00897B" fill-opacity="0.54"/>
<path fill-rule="evenodd" clip-rule="evenodd" d="M118.25 37.5625C117 33.875 113.5 31.25 109.375 31.25H40.625C36.5 31.25 33.0625 33.875 31.75 37.5625L18.75 75V125C18.75 128.438 21.5625 131.25 25 131.25H31.25C34.6875 131.25 37.5 128.438 37.5 125V118.75H112.5V125C112.5 128.438 115.312 131.25 118.75 131.25H125C128.438 131.25 131.25 128.438 131.25 125V75L118.25 37.5625ZM42.8125 43.75H107.125L113.875 63.1875H36.0625L42.8125 43.75ZM31.25 106.25H118.75V75H31.25V106.25Z" fill="#00897B" fill-opacity="0.54"/>
<path d="M46.875 100C52.0527 100 56.25 95.8027 56.25 90.625C56.25 85.4473 52.0527 81.25 46.875 81.25C41.6973 81.25 37.5 85.4473 37.5 90.625C37.5 95.8027 41.6973 100 46.875 100Z" fill="#00897B" fill-opacity="0.54"/>
<path d="M103.125 100C108.303 100 112.5 95.8027 112.5 90.625C112.5 85.4473 108.303 81.25 103.125 81.25C97.9473 81.25 93.75 85.4473 93.75 90.625C93.75 95.8027 97.9473 100 103.125 100Z" fill="#00897B" fill-opacity="0.54"/>
</svg>
