<svg width="150" height="150" viewBox="0 0 150 150" fill="none" xmlns="http://www.w3.org/2000/svg">
<path opacity="0.5" fill-rule="evenodd" clip-rule="evenodd" d="M118.75 118.75H31.25V31.25H118.75V118.75ZM62.4375 88.6251L46.3125 72.5001L37.5 81.3126L62.4375 106.25L112.437 56.2501L103.625 47.4376L62.4375 88.6251Z" fill="#FF9800" fill-opacity="0.54"/>
<path fill-rule="evenodd" clip-rule="evenodd" d="M31.25 18.75H118.75C125.625 18.75 131.25 24.375 131.25 31.25V118.75C131.25 125.625 125.625 131.25 118.75 131.25H31.25C24.375 131.25 18.75 125.625 18.75 118.75V31.25C18.75 24.375 24.375 18.75 31.25 18.75ZM31.25 118.75H118.75V31.25H31.25V118.75Z" fill="#FF9800" fill-opacity="0.54"/>
<path d="M112.438 56.2501L103.625 47.3751L62.4375 88.5626L46.3125 72.5001L37.4375 81.3126L62.4375 106.25L112.438 56.2501Z" fill="#FF9800" fill-opacity="0.54"/>
</svg>
