<svg width="150" height="150" viewBox="0 0 150 150" fill="none" xmlns="http://www.w3.org/2000/svg">
<path opacity="0.3" d="M81.25 37.5H68.75V70.8125L37.5 112.5H112.5L81.25 70.8125V37.5Z" fill="#52FF00" fill-opacity="0.54"/>
<path d="M130 115L93.7496 66.6875V40.625L102.187 30.0625C103.812 28 102.375 25 99.7496 25H50.2496C47.6246 25 46.1871 28 47.8121 30.0625L56.2496 40.625V66.6875L19.9996 115C16.9371 119.125 19.8746 125 24.9996 125H125C130.125 125 133.062 119.125 130 115ZM37.4996 112.5L68.7496 70.8125V37.5H81.2496V70.8125L112.5 112.5H37.4996Z" fill="#52FF00" fill-opacity="0.54"/>
</svg>
