<svg width="150" height="150" viewBox="0 0 150 150" fill="none" xmlns="http://www.w3.org/2000/svg">
<path opacity="0.3" d="M103.319 43.7988H46.6936C40.5061 43.7988 35.1936 48.4238 34.3186 54.5488L27.5061 102.361C27.3186 103.674 27.8186 104.549 28.3186 105.111C28.7561 105.674 29.5686 106.299 30.8811 106.299C31.8186 106.299 32.6936 105.924 33.3186 105.299L51.0686 87.5489H98.9436L116.694 105.299C117.319 105.924 118.194 106.299 119.131 106.299C120.444 106.299 121.256 105.674 121.756 105.111C122.256 104.549 122.756 103.674 122.569 102.361L115.756 54.4863C114.819 48.4238 109.506 43.7988 103.319 43.7988ZM68.7561 68.7989H56.2561V81.2989H50.0061V68.7989H37.5061V62.5489H50.0061V50.0488H56.2561V62.5489H68.7561V68.7989ZM93.7561 62.5489C90.3186 62.5489 87.5061 59.7363 87.5061 56.2988C87.5061 52.8613 90.3186 50.0488 93.7561 50.0488C97.1936 50.0488 100.006 52.8613 100.006 56.2988C100.006 59.7363 97.1936 62.5489 93.7561 62.5489ZM106.256 81.2989C102.819 81.2989 100.006 78.4864 100.006 75.0489C100.006 71.6114 102.819 68.7989 106.256 68.7989C109.694 68.7989 112.506 71.6114 112.506 75.0489C112.506 78.4864 109.694 81.2989 106.256 81.2989Z" fill="#3D5AFE" fill-opacity="0.54"/>
<path d="M134.874 100.587L128.061 52.7119C126.311 40.3994 115.749 31.2744 103.311 31.2744H46.6864C34.2489 31.2744 23.6864 40.3994 21.9364 52.7119L15.1239 100.587C13.7489 110.212 21.1864 118.775 30.8739 118.775C35.1239 118.775 39.1239 117.087 42.1239 114.087L56.2489 100.024H93.749L107.811 114.087C110.811 117.087 114.874 118.775 119.061 118.775C128.811 118.775 136.249 110.212 134.874 100.587ZM121.749 105.087C121.249 105.649 120.436 106.274 119.124 106.274C118.186 106.274 117.311 105.899 116.686 105.274L98.9365 87.5245H51.0614L33.3114 105.274C32.6864 105.899 31.8114 106.274 30.8739 106.274C29.5614 106.274 28.7489 105.649 28.2489 105.087C27.7489 104.524 27.2489 103.649 27.4364 102.337L34.2489 54.4619C35.1864 48.3994 40.4989 43.7744 46.6864 43.7744H103.311C109.499 43.7744 114.811 48.3994 115.686 54.5244L122.499 102.399C122.686 103.649 122.186 104.524 121.749 105.087Z" fill="#3D5AFE" fill-opacity="0.54"/>
<path d="M56.25 50.0245H50V62.5244H37.5V68.7744H50V81.2744H56.25V68.7744H68.7501V62.5244H56.25V50.0245Z" fill="#3D5AFE" fill-opacity="0.54"/>
<path d="M106.262 81.2742C109.714 81.2742 112.512 78.4761 112.512 75.0243C112.512 71.5726 109.714 68.7745 106.262 68.7745C102.81 68.7745 100.012 71.5726 100.012 75.0243C100.012 78.4761 102.81 81.2742 106.262 81.2742Z" fill="#3D5AFE" fill-opacity="0.54"/>
<path d="M93.7561 62.5244C97.2079 62.5244 100.006 59.7262 100.006 56.2745C100.006 52.8227 97.2079 50.0245 93.7561 50.0245C90.3043 50.0245 87.5061 52.8227 87.5061 56.2745C87.5061 59.7262 90.3043 62.5244 93.7561 62.5244Z" fill="#3D5AFE" fill-opacity="0.54"/>
</svg>
