<svg width="150" height="150" viewBox="0 0 150 150" fill="none" xmlns="http://www.w3.org/2000/svg">
<path opacity="0.3" d="M75 43.75C57.75 43.75 43.75 57.75 43.75 75C43.75 92.25 57.75 106.25 75 106.25C92.25 106.25 106.25 92.25 106.25 75C106.25 57.75 92.25 43.75 75 43.75ZM85.9375 50C89.375 50 92.1875 52.8125 92.1875 56.25C92.1875 59.6875 89.375 62.5 85.9375 62.5C82.5 62.5 79.6875 59.6875 79.6875 56.25C79.6875 52.8125 82.5 50 85.9375 50ZM64.0625 50C67.5 50 70.3125 52.8125 70.3125 56.25C70.3125 59.6875 67.5 62.5 64.0625 62.5C60.625 62.5 57.8125 59.6875 57.8125 56.25C57.8125 52.8125 60.625 50 64.0625 50ZM53.125 81.25C49.6875 81.25 46.875 78.4375 46.875 75C46.875 71.5625 49.6875 68.75 53.125 68.75C56.5625 68.75 59.375 71.5625 59.375 75C59.375 78.4375 56.5625 81.25 53.125 81.25ZM64.0625 100C60.625 100 57.8125 97.1875 57.8125 93.75C57.8125 90.3125 60.625 87.5 64.0625 87.5C67.5 87.5 70.3125 90.3125 70.3125 93.75C70.3125 97.1875 67.5 100 64.0625 100ZM75 81.25C71.5625 81.25 68.75 78.4375 68.75 75C68.75 71.5625 71.5625 68.75 75 68.75C78.4375 68.75 81.25 71.5625 81.25 75C81.25 78.4375 78.4375 81.25 75 81.25ZM85.9375 100C82.5 100 79.6875 97.1875 79.6875 93.75C79.6875 90.3125 82.5 87.5 85.9375 87.5C89.375 87.5 92.1875 90.3125 92.1875 93.75C92.1875 97.1875 89.375 100 85.9375 100ZM96.875 81.25C93.4375 81.25 90.625 78.4375 90.625 75C90.625 71.5625 93.4375 68.75 96.875 68.75C100.312 68.75 103.125 71.5625 103.125 75C103.125 78.4375 100.312 81.25 96.875 81.25Z" fill="#FF2E00" fill-opacity="0.54"/>
<path d="M59.375 75C59.375 78.4375 56.5625 81.25 53.125 81.25C49.6875 81.25 46.875 78.4375 46.875 75C46.875 71.5625 49.6875 68.75 53.125 68.75C56.5625 68.75 59.375 71.5625 59.375 75ZM85.9375 62.5C89.375 62.5 92.1875 59.6875 92.1875 56.25C92.1875 52.8125 89.375 50 85.9375 50C82.5 50 79.6875 52.8125 79.6875 56.25C79.6875 59.6875 82.5 62.5 85.9375 62.5ZM64.0625 62.5C67.5 62.5 70.3125 59.6875 70.3125 56.25C70.3125 52.8125 67.5 50 64.0625 50C60.625 50 57.8125 52.8125 57.8125 56.25C57.8125 59.6875 60.625 62.5 64.0625 62.5ZM64.0625 87.5C60.625 87.5 57.8125 90.3125 57.8125 93.75C57.8125 97.1875 60.625 100 64.0625 100C67.5 100 70.3125 97.1875 70.3125 93.75C70.3125 90.3125 67.5 87.5 64.0625 87.5ZM137.5 70.3125V79.6875C137.5 82.25 135.375 84.375 132.812 84.375C130.25 84.375 128.125 82.25 128.125 79.6875H118.5C117.562 88.25 114.188 96.125 109 102.5L115.813 109.312L115.875 109.25C117.688 107.438 120.688 107.438 122.5 109.25C124.312 111.062 124.312 114.063 122.5 115.875L115.875 122.5C114.063 124.312 111.062 124.312 109.25 122.5C107.438 120.688 107.437 117.75 109.187 115.937L102.375 109.125C96 114.25 88.1875 117.625 79.625 118.562V128.188H79.6875C82.25 128.188 84.375 130.312 84.375 132.875C84.375 135.438 82.25 137.562 79.6875 137.562H70.3125C67.75 137.562 65.625 135.438 65.625 132.875C65.625 130.312 67.6875 128.25 70.25 128.188V118.5C61.6875 117.562 53.875 114.188 47.5625 109.063L40.75 115.875L40.8125 115.937C42.625 117.75 42.625 120.75 40.8125 122.562C39 124.375 36 124.375 34.1875 122.562L27.5 115.875C25.6875 114.063 25.6875 111.062 27.5 109.25C29.3125 107.438 32.25 107.437 34.0625 109.187L40.875 102.375C35.75 96 32.375 88.25 31.5 79.6875H21.875C21.875 82.25 19.75 84.375 17.1875 84.375C14.625 84.375 12.5 82.25 12.5 79.6875V70.3125C12.5 67.75 14.625 65.625 17.1875 65.625C19.75 65.625 21.875 67.75 21.875 70.3125H31.5C32.4375 61.75 35.8125 54 40.875 47.625L34.0625 40.8125C32.25 42.5625 29.3125 42.5625 27.5 40.75C25.6875 38.9375 25.6875 35.9375 27.5 34.125L34.125 27.5C35.9375 25.6875 38.9375 25.6875 40.75 27.5C42.5625 29.3125 42.5625 32.3125 40.75 34.125L40.6875 34.1875L47.5 41C53.875 35.875 61.625 32.5 70.1875 31.5625V21.875C67.625 21.8125 65.5625 19.75 65.5625 17.1875C65.625 14.625 67.75 12.5 70.3125 12.5H79.6875C82.25 12.5 84.375 14.625 84.375 17.1875C84.375 19.75 82.25 21.875 79.6875 21.875H79.625V31.5C88.1875 32.375 96 35.8125 102.375 40.9375L109.187 34.125C107.375 32.3125 107.438 29.375 109.25 27.5625C111.062 25.75 114.063 25.75 115.875 27.5625L122.5 34.1875C124.312 36 124.312 39 122.5 40.8125C120.688 42.625 117.688 42.625 115.875 40.8125L115.813 40.75L109 47.5C114.125 53.875 117.562 61.6875 118.5 70.3125H128.125C128.125 67.75 130.25 65.625 132.812 65.625C135.375 65.625 137.5 67.75 137.5 70.3125ZM106.25 75C106.25 57.75 92.25 43.75 75 43.75C57.75 43.75 43.75 57.75 43.75 75C43.75 92.25 57.75 106.25 75 106.25C92.25 106.25 106.25 92.25 106.25 75ZM75 68.75C71.5625 68.75 68.75 71.5625 68.75 75C68.75 78.4375 71.5625 81.25 75 81.25C78.4375 81.25 81.25 78.4375 81.25 75C81.25 71.5625 78.4375 68.75 75 68.75ZM96.875 68.75C93.4375 68.75 90.625 71.5625 90.625 75C90.625 78.4375 93.4375 81.25 96.875 81.25C100.312 81.25 103.125 78.4375 103.125 75C103.125 71.5625 100.312 68.75 96.875 68.75ZM85.9375 87.5C82.5 87.5 79.6875 90.3125 79.6875 93.75C79.6875 97.1875 82.5 100 85.9375 100C89.375 100 92.1875 97.1875 92.1875 93.75C92.1875 90.3125 89.375 87.5 85.9375 87.5Z" fill="#FF2E00" fill-opacity="0.54"/>
</svg>
