<svg width="150" height="150" viewBox="0 0 150 150" fill="none" xmlns="http://www.w3.org/2000/svg">
<path opacity="0.5" d="M56.25 62.5C61.4277 62.5 65.625 58.3027 65.625 53.125C65.625 47.9473 61.4277 43.75 56.25 43.75C51.0723 43.75 46.875 47.9473 46.875 53.125C46.875 58.3027 51.0723 62.5 56.25 62.5Z" fill="#FF6D00" fill-opacity="0.54"/>
<path opacity="0.5" d="M27.125 106.25H85.375C80.125 102.625 67.4375 98.4375 56.25 98.4375C45.0625 98.4375 32.375 102.625 27.125 106.25Z" fill="#FF6D00" fill-opacity="0.54"/>
<path fill-rule="evenodd" clip-rule="evenodd" d="M78.125 53.125C78.125 65.1875 68.3125 75 56.25 75C44.1875 75 34.375 65.1875 34.375 53.125C34.375 41.0625 44.1875 31.25 56.25 31.25C68.3125 31.25 78.125 41.0625 78.125 53.125ZM65.625 53.125C65.625 47.9375 61.4375 43.75 56.25 43.75C51.0625 43.75 46.875 47.9375 46.875 53.125C46.875 58.3125 51.0625 62.5 56.25 62.5C61.4375 62.5 65.625 58.3125 65.625 53.125Z" fill="#FF6D00" fill-opacity="0.54"/>
<path fill-rule="evenodd" clip-rule="evenodd" d="M12.5 107.812C12.5 93.25 41.625 85.9375 56.25 85.9375C70.875 85.9375 100 93.25 100 107.812V118.75H12.5V107.812ZM56.25 98.4375C45.0625 98.4375 32.375 102.625 27.125 106.25H85.375C80.125 102.625 67.4375 98.4375 56.25 98.4375Z" fill="#FF6D00" fill-opacity="0.54"/>
<path d="M100.25 86.3125C107.5 91.5625 112.5 98.5625 112.5 107.812V118.75H137.5V107.812C137.5 95.1875 115.625 88 100.25 86.3125Z" fill="#FF6D00" fill-opacity="0.54"/>
<path d="M93.75 75C105.812 75 115.625 65.1875 115.625 53.125C115.625 41.0625 105.812 31.25 93.75 31.25C90.375 31.25 87.25 32.0625 84.375 33.4375C88.3125 39 90.625 45.8125 90.625 53.125C90.625 60.4375 88.3125 67.25 84.375 72.8125C87.25 74.1875 90.375 75 93.75 75Z" fill="#FF6D00" fill-opacity="0.54"/>
</svg>
