<svg width="150" height="150" viewBox="0 0 150 150" fill="none" xmlns="http://www.w3.org/2000/svg">
<path opacity="0.5" fill-rule="evenodd" clip-rule="evenodd" d="M75 25C47.4375 25 25 47.4375 25 75C25 102.562 47.4375 125 75 125C76.75 125 78.125 123.625 78.125 121.875C78.125 120.875 77.625 120.125 77.25 119.688C74.6875 116.812 73.3125 113.125 73.3125 109.375C73.3125 100.75 80.3125 93.75 88.9375 93.75H100C113.812 93.75 125 82.5625 125 68.75C125 44.625 102.562 25 75 25ZM40.625 81.25C35.4375 81.25 31.25 77.0625 31.25 71.875C31.25 66.6875 35.4375 62.5 40.625 62.5C45.8125 62.5 50 66.6875 50 71.875C50 77.0625 45.8125 81.25 40.625 81.25ZM50 46.875C50 52.0625 54.1875 56.25 59.375 56.25C64.5625 56.25 68.75 52.0625 68.75 46.875C68.75 41.6875 64.5625 37.5 59.375 37.5C54.1875 37.5 50 41.6875 50 46.875ZM90.625 56.25C85.4375 56.25 81.25 52.0625 81.25 46.875C81.25 41.6875 85.4375 37.5 90.625 37.5C95.8125 37.5 100 41.6875 100 46.875C100 52.0625 95.8125 56.25 90.625 56.25ZM109.375 81.25C114.562 81.25 118.75 77.0625 118.75 71.875C118.75 66.6875 114.562 62.5 109.375 62.5C104.188 62.5 100 66.6875 100 71.875C100 77.0625 104.188 81.25 109.375 81.25Z" fill="#D81B60" fill-opacity="0.54"/>
<path fill-rule="evenodd" clip-rule="evenodd" d="M12.5 75C12.5 40.5625 40.5625 12.5 75 12.5C109.438 12.5 137.5 37.75 137.5 68.75C137.5 89.4375 120.688 106.25 100 106.25H88.9375C87.1875 106.25 85.8125 107.625 85.8125 109.375C85.8125 110.125 86.125 110.875 86.625 111.438C89.1875 114.312 90.625 118.062 90.625 121.875C90.625 130.5 83.625 137.5 75 137.5C40.5625 137.5 12.5 109.438 12.5 75ZM88.9375 93.75H100C113.812 93.75 125 82.5625 125 68.75C125 44.625 102.562 25 75 25C47.4375 25 25 47.4375 25 75C25 102.562 47.4375 125 75 125C76.75 125 78.125 123.625 78.125 121.875C78.125 120.875 77.625 120.125 77.25 119.688C74.6875 116.812 73.3125 113.188 73.3125 109.375C73.3125 100.75 80.3125 93.75 88.9375 93.75Z" fill="#D81B60" fill-opacity="0.54"/>
<path d="M40.625 81.25C45.8027 81.25 50 77.0527 50 71.875C50 66.6973 45.8027 62.5 40.625 62.5C35.4473 62.5 31.25 66.6973 31.25 71.875C31.25 77.0527 35.4473 81.25 40.625 81.25Z" fill="#D81B60" fill-opacity="0.54"/>
<path d="M59.375 56.25C64.5527 56.25 68.75 52.0527 68.75 46.875C68.75 41.6973 64.5527 37.5 59.375 37.5C54.1973 37.5 50 41.6973 50 46.875C50 52.0527 54.1973 56.25 59.375 56.25Z" fill="#D81B60" fill-opacity="0.54"/>
<path d="M90.625 56.25C95.8027 56.25 100 52.0527 100 46.875C100 41.6973 95.8027 37.5 90.625 37.5C85.4473 37.5 81.25 41.6973 81.25 46.875C81.25 52.0527 85.4473 56.25 90.625 56.25Z" fill="#D81B60" fill-opacity="0.54"/>
<path d="M109.375 81.25C114.553 81.25 118.75 77.0527 118.75 71.875C118.75 66.6973 114.553 62.5 109.375 62.5C104.197 62.5 100 66.6973 100 71.875C100 77.0527 104.197 81.25 109.375 81.25Z" fill="#D81B60" fill-opacity="0.54"/>
</svg>
