<svg width="150" height="150" viewBox="0 0 150 150" fill="none" xmlns="http://www.w3.org/2000/svg">
<path d="M96.875 34.375C103.75 34.375 109.375 28.75 109.375 21.875C109.375 15 103.75 9.375 96.875 9.375C90 9.375 84.375 15 84.375 21.875C84.375 28.75 90 34.375 96.875 34.375ZM31.25 137.5C48.75 137.5 62.5 123.75 62.5 106.25C62.5 88.75 48.75 75 31.25 75C13.75 75 0 88.75 0 106.25C0 123.75 13.75 137.5 31.25 137.5ZM31.25 84.375C43.125 84.375 53.125 94.375 53.125 106.25C53.125 118.125 43.125 128.125 31.25 128.125C19.375 128.125 9.375 118.125 9.375 106.25C9.375 94.375 19.375 84.375 31.25 84.375ZM48.75 70L68.75 87.5V118.75H81.25V80L67.5 65.625L82.5 50.625L87.5 55.625C95.625 63.75 106.25 68.75 119.375 68.75V56.25C110 56.25 102.5 52.5 96.875 46.875L85 35C81.875 32.5 78.75 31.25 75 31.25C71.25 31.25 68.125 32.5 66.25 35L48.75 52.5C46.25 55 45 58.125 45 61.25C45 65 46.25 68.125 48.75 70ZM118.75 75C101.25 75 87.5 88.75 87.5 106.25C87.5 123.75 101.25 137.5 118.75 137.5C136.25 137.5 150 123.75 150 106.25C150 88.75 136.25 75 118.75 75ZM118.75 128.125C106.875 128.125 96.875 118.125 96.875 106.25C96.875 94.375 106.875 84.375 118.75 84.375C130.625 84.375 140.625 94.375 140.625 106.25C140.625 118.125 130.625 128.125 118.75 128.125Z" fill="#52FF00" fill-opacity="0.54"/>
</svg>
