<svg width="150" height="150" viewBox="0 0 150 150" fill="none" xmlns="http://www.w3.org/2000/svg">
<path fill-rule="evenodd" clip-rule="evenodd" d="M125 18.75H118.75V6.25H106.25V18.75H43.75V6.25H31.25V18.75H25C18.125 18.75 12.5 24.375 12.5 31.25V131.25C12.5 138.125 18.125 143.75 25 143.75H125C131.875 143.75 137.5 138.125 137.5 131.25V31.25C137.5 24.375 131.875 18.75 125 18.75ZM125 31.25V50H25V31.25H125ZM25 62.5V131.25H125V62.5H25Z" fill="#F57C00" fill-opacity="0.54"/>
<path opacity="0.5" d="M25 31.3125H125V50H25V31.3125Z" fill="#F57C00" fill-opacity="0.54"/>
<path d="M45.4387 80.112C48.6947 80.112 51.54 80.7573 53.9747 82.048C56.4093 83.3387 58.2867 85.1573 59.6067 87.504C60.956 89.8213 61.6307 92.5053 61.6307 95.556C61.6307 98.5773 60.956 101.261 59.6067 103.608C58.2867 105.955 56.3947 107.773 53.9307 109.064C51.496 110.355 48.6653 111 45.4387 111H33.8667V80.112H45.4387ZM44.9547 104.488C47.8 104.488 50.0147 103.711 51.5987 102.156C53.1827 100.601 53.9747 98.4013 53.9747 95.556C53.9747 92.7107 53.1827 90.496 51.5987 88.912C50.0147 87.328 47.8 86.536 44.9547 86.536H41.3907V104.488H44.9547ZM88.9794 98.328C88.9794 99.032 88.9354 99.7653 88.8474 100.528H71.8194C71.9368 102.053 72.4208 103.227 73.2714 104.048C74.1514 104.84 75.2221 105.236 76.4834 105.236C78.3608 105.236 79.6661 104.444 80.3994 102.86H88.4074C87.9968 104.473 87.2488 105.925 86.1634 107.216C85.1074 108.507 83.7728 109.519 82.1594 110.252C80.5461 110.985 78.7421 111.352 76.7474 111.352C74.3421 111.352 72.2008 110.839 70.3234 109.812C68.4461 108.785 66.9794 107.319 65.9234 105.412C64.8674 103.505 64.3394 101.276 64.3394 98.724C64.3394 96.172 64.8528 93.9427 65.8794 92.036C66.9354 90.1293 68.4021 88.6627 70.2794 87.636C72.1568 86.6093 74.3128 86.096 76.7474 86.096C79.1234 86.096 81.2354 86.5947 83.0834 87.592C84.9314 88.5893 86.3688 90.012 87.3954 91.86C88.4514 93.708 88.9794 95.864 88.9794 98.328ZM81.2794 96.348C81.2794 95.0573 80.8394 94.0307 79.9594 93.268C79.0794 92.5053 77.9794 92.124 76.6594 92.124C75.3981 92.124 74.3274 92.4907 73.4474 93.224C72.5968 93.9573 72.0688 94.9987 71.8634 96.348H81.2794ZM91.4527 98.724C91.4527 96.172 91.966 93.9427 92.9927 92.036C94.0487 90.1293 95.5007 88.6627 97.3487 87.636C99.226 86.6093 101.367 86.096 103.773 86.096C106.853 86.096 109.419 86.9027 111.473 88.516C113.555 90.1293 114.919 92.4027 115.565 95.336H107.557C106.882 93.4587 105.577 92.52 103.641 92.52C102.262 92.52 101.162 93.0627 100.341 94.148C99.5194 95.204 99.1087 96.7293 99.1087 98.724C99.1087 100.719 99.5194 102.259 100.341 103.344C101.162 104.4 102.262 104.928 103.641 104.928C105.577 104.928 106.882 103.989 107.557 102.112H115.565C114.919 104.987 113.555 107.245 111.473 108.888C109.39 110.531 106.823 111.352 103.773 111.352C101.367 111.352 99.226 110.839 97.3487 109.812C95.5007 108.785 94.0487 107.319 92.9927 105.412C91.966 103.505 91.4527 101.276 91.4527 98.724Z" fill="#F57C00" fill-opacity="0.54"/>
</svg>
