<svg width="150" height="150" viewBox="0 0 150 150" fill="none" xmlns="http://www.w3.org/2000/svg">
<path opacity="0.5" fill-rule="evenodd" clip-rule="evenodd" d="M112.5 75L103.938 71.0625L100 62.5H125.063V112.5H25.0626V40.4375L36.0626 62.5H100L96.0626 71.0625L87.5001 75L96.0626 78.9375L100 87.5L103.938 78.9375L112.5 75ZM62.5 106.25L68.375 93.375L81.25 87.5L68.375 81.625L62.5 68.75L56.625 81.625L43.75 87.5L56.625 93.375L62.5 106.25Z" fill="#40C4FF" fill-opacity="0.54"/>
<path d="M62.5 68.75L56.625 81.625L43.75 87.5L56.625 93.375L62.5 106.25L68.375 93.375L81.25 87.5L68.375 81.625L62.5 68.75Z" fill="#40C4FF" fill-opacity="0.54"/>
<path fill-rule="evenodd" clip-rule="evenodd" d="M106.313 50H125.063L112.563 25H137.5V112.5C137.5 119.375 131.938 125 125.063 125H25.0626C18.1876 125 12.5626 119.375 12.5626 112.5L12.6251 37.5C12.6251 30.625 18.1876 25 25.0626 25H31.3126L43.8126 50H62.5626L50.0626 25H62.5626L75.0626 50H93.8126L81.3126 25H93.8126L106.313 50ZM25.0626 112.5H125.063V62.5H100H36.0626L25.0626 40.4375V112.5ZM100 62.5L103.938 71.0625L112.5 75L103.938 78.9375L100 87.5L96.0626 78.9375L87.5001 75L96.0626 71.0625L100 62.5Z" fill="#40C4FF" fill-opacity="0.54"/>
</svg>
