<svg width="150" height="150" viewBox="0 0 150 150" fill="none" xmlns="http://www.w3.org/2000/svg">
<path fill-rule="evenodd" clip-rule="evenodd" d="M125 18.75H118.75V6.25H106.25V18.75H43.75V6.25H31.25V18.75H25C18.125 18.75 12.5 24.375 12.5 31.25V131.25C12.5 138.125 18.125 143.75 25 143.75H125C131.875 143.75 137.5 138.125 137.5 131.25V31.25C137.5 24.375 131.875 18.75 125 18.75ZM125 31.25V50H25V31.25H125ZM25 62.5V131.25H125V62.5H25Z" fill="#FF4D00" fill-opacity="0.54"/>
<path opacity="0.5" d="M25 31.3125H125V50H25V31.3125Z" fill="#FF4D00" fill-opacity="0.54"/>
<path d="M56.3165 80.112V86.14H43.7325V92.652H53.1485V98.504H43.7325V111H36.2085V80.112H56.3165ZM83.415 98.328C83.415 99.032 83.371 99.7653 83.283 100.528H66.255C66.3723 102.053 66.8563 103.227 67.707 104.048C68.587 104.84 69.6576 105.236 70.919 105.236C72.7963 105.236 74.1016 104.444 74.835 102.86H82.843C82.4323 104.473 81.6843 105.925 80.599 107.216C79.543 108.507 78.2083 109.519 76.595 110.252C74.9816 110.985 73.1776 111.352 71.183 111.352C68.7776 111.352 66.6363 110.839 64.759 109.812C62.8816 108.785 61.415 107.319 60.359 105.412C59.303 103.505 58.775 101.276 58.775 98.724C58.775 96.172 59.2883 93.9427 60.315 92.036C61.371 90.1293 62.8376 88.6627 64.715 87.636C66.5923 86.6093 68.7483 86.096 71.183 86.096C73.559 86.096 75.671 86.5947 77.519 87.592C79.367 88.5893 80.8043 90.012 81.831 91.86C82.887 93.708 83.415 95.864 83.415 98.328ZM75.715 96.348C75.715 95.0573 75.275 94.0307 74.395 93.268C73.515 92.5053 72.415 92.124 71.095 92.124C69.8336 92.124 68.763 92.4907 67.883 93.224C67.0323 93.9573 66.5043 94.9987 66.299 96.348H75.715ZM94.9083 89.924C95.6123 88.78 96.6243 87.856 97.9443 87.152C99.2643 86.448 100.775 86.096 102.476 86.096C104.5 86.096 106.334 86.6093 107.976 87.636C109.619 88.6627 110.91 90.1293 111.848 92.036C112.816 93.9427 113.3 96.1573 113.3 98.68C113.3 101.203 112.816 103.432 111.848 105.368C110.91 107.275 109.619 108.756 107.976 109.812C106.334 110.839 104.5 111.352 102.476 111.352C100.746 111.352 99.2349 111.015 97.9443 110.34C96.6536 109.636 95.6416 108.712 94.9083 107.568V111H87.3843V78.44H94.9083V89.924ZM105.644 98.68C105.644 96.8027 105.116 95.336 104.06 94.28C103.034 93.1947 101.758 92.652 100.232 92.652C98.7363 92.652 97.4603 93.1947 96.4043 94.28C95.3776 95.3653 94.8643 96.8467 94.8643 98.724C94.8643 100.601 95.3776 102.083 96.4043 103.168C97.4603 104.253 98.7363 104.796 100.232 104.796C101.728 104.796 103.004 104.253 104.06 103.168C105.116 102.053 105.644 100.557 105.644 98.68Z" fill="#FF4D00" fill-opacity="0.54"/>
</svg>
