<svg width="150" height="150" viewBox="0 0 150 150" fill="none" xmlns="http://www.w3.org/2000/svg">
<path opacity="0.5" d="M81.25 106.25C74.375 106.25 68.75 100.625 68.75 93.75V56.25C68.75 49.375 74.375 43.75 81.25 43.75H118.75V31.25H31.25V118.75H118.75V106.25H81.25Z" fill="#64DD17" fill-opacity="0.54"/>
<path fill-rule="evenodd" clip-rule="evenodd" d="M131.25 45.5V31.25C131.25 24.375 125.625 18.75 118.75 18.75H31.25C24.3125 18.75 18.75 24.375 18.75 31.25V118.75C18.75 125.625 24.3125 131.25 31.25 131.25H118.75C125.625 131.25 131.25 125.625 131.25 118.75V104.5C134.938 102.312 137.5 98.375 137.5 93.75V56.25C137.5 51.625 134.938 47.625 131.25 45.5ZM125 56.25V93.75H81.25V56.25H125ZM31.25 31.25V118.75H118.75V106.25H81.25C74.375 106.25 68.75 100.625 68.75 93.75V56.25C68.75 49.375 74.375 43.75 81.25 43.75H118.75V31.25H31.25Z" fill="#64DD17" fill-opacity="0.54"/>
<path d="M100 84.375C105.178 84.375 109.375 80.1777 109.375 75C109.375 69.8223 105.178 65.625 100 65.625C94.8223 65.625 90.625 69.8223 90.625 75C90.625 80.1777 94.8223 84.375 100 84.375Z" fill="#64DD17" fill-opacity="0.54"/>
</svg>
