<svg width="150" height="150" viewBox="0 0 150 150" fill="none" xmlns="http://www.w3.org/2000/svg">
<path opacity="0.5" d="M75 46.875C61.1875 46.875 50 58.0625 50 71.875C50 85.6875 61.1875 96.875 75 96.875C88.8125 96.875 100 85.6875 100 71.875C100 58.0625 88.8125 46.875 75 46.875Z" fill="#FFD600" fill-opacity="0.54"/>
<path d="M33.3749 39.0625L42.2499 30.25L30.9999 19.0625L22.1874 27.875L33.3749 39.0625Z" fill="#FFD600" fill-opacity="0.54"/>
<path d="M6.25 65.625H25V78.125H6.25V65.625Z" fill="#FFD600" fill-opacity="0.54"/>
<path d="M68.75 3.43752H81.25V21.875H68.75V3.43752Z" fill="#FFD600" fill-opacity="0.54"/>
<path d="M116.618 39.0968L107.823 30.3023L119.004 19.1213L127.799 27.9158L116.618 39.0968Z" fill="#FFD600" fill-opacity="0.54"/>
<path d="M107.75 113.5L118.937 124.75L127.75 115.938L116.5 104.75L107.75 113.5Z" fill="#FFD600" fill-opacity="0.54"/>
<path d="M125 65.625H143.75V78.125H125V65.625Z" fill="#FFD600" fill-opacity="0.54"/>
<path fill-rule="evenodd" clip-rule="evenodd" d="M37.5 71.875C37.5 51.1875 54.3125 34.375 75 34.375C95.6875 34.375 112.5 51.1875 112.5 71.875C112.5 92.5625 95.6875 109.375 75 109.375C54.3125 109.375 37.5 92.5625 37.5 71.875ZM50 71.875C50 85.6875 61.1875 96.875 75 96.875C88.8125 96.875 100 85.6875 100 71.875C100 58.0625 88.8125 46.875 75 46.875C61.1875 46.875 50 58.0625 50 71.875Z" fill="#FFD600" fill-opacity="0.54"/>
<path d="M68.75 121.875H81.25V140.312H68.75V121.875Z" fill="#FFD600" fill-opacity="0.54"/>
<path d="M22.1874 115.875L30.9999 124.687L42.1874 113.437L33.3749 104.625L22.1874 115.875Z" fill="#FFD600" fill-opacity="0.54"/>
</svg>
