<svg width="150" height="150" viewBox="0 0 150 150" fill="none" xmlns="http://www.w3.org/2000/svg">
<path opacity="0.3" d="M103.631 62.5489H46.3806C51.1931 73.5489 62.2556 81.299 75.0056 81.299C87.7556 81.299 98.8181 73.5489 103.631 62.5489Z" fill="#FF2E00" fill-opacity="0.54"/>
<path d="M106.256 137.524C116.631 137.524 125.006 129.149 125.006 118.774C125.006 108.399 116.631 100.024 106.256 100.024C98.1311 100.024 91.2561 105.274 88.6311 112.524H57.1311L69.5686 93.3995C71.3811 93.6495 73.1936 93.7745 75.0061 93.7745C76.8186 93.7745 78.6311 93.6495 80.4436 93.3995L86.8186 103.212C89.4436 99.8995 92.8186 97.2745 96.8186 95.6495L93.0686 89.837C108.194 82.962 118.756 67.7745 118.756 50.0246H31.2561C31.2561 67.7745 41.8186 82.962 57.0061 89.837L32.3186 127.837C30.4436 130.712 31.2561 134.587 34.1311 136.462C37.0061 138.337 40.8811 137.524 42.7561 134.649L49.0061 124.962H88.6311C91.2561 132.274 98.1311 137.524 106.256 137.524ZM106.256 112.524C109.694 112.524 112.506 115.337 112.506 118.774C112.506 122.212 109.694 125.024 106.256 125.024C102.819 125.024 100.006 122.212 100.006 118.774C100.006 115.337 102.819 112.524 106.256 112.524ZM46.3811 62.5245H103.631C98.8186 73.5245 87.7561 81.2745 75.0061 81.2745C62.2561 81.2745 51.1936 73.5245 46.3811 62.5245Z" fill="#FF2E00" fill-opacity="0.54"/>
<path opacity="0.3" d="M106.262 125C109.714 125 112.512 122.202 112.512 118.75C112.512 115.298 109.714 112.5 106.262 112.5C102.81 112.5 100.012 115.298 100.012 118.75C100.012 122.202 102.81 125 106.262 125Z" fill="#FF2E00" fill-opacity="0.54"/>
<path d="M58.8095 43.7745H65.0595C65.997 36.587 66.497 33.5245 59.497 25.2745C56.872 22.1495 55.247 20.462 56.622 12.5245H50.4345C49.122 19.462 50.622 25.337 55.997 31.0245C57.372 32.5245 60.9345 35.212 58.8095 43.7745Z" fill="#FF2E00" fill-opacity="0.54"/>
<path d="M74.3185 43.7745H80.5685C81.506 36.587 82.006 33.5245 75.006 25.2745C72.381 22.1495 70.756 20.3995 72.131 12.5245H65.9435C64.631 19.462 66.131 25.337 71.506 31.0245C72.9435 32.5245 76.506 35.212 74.3185 43.7745Z" fill="#FF2E00" fill-opacity="0.54"/>
<path d="M90.0656 43.7745H96.3155C97.253 36.587 97.753 33.5245 90.7531 25.2745C88.1281 22.1495 86.5031 20.462 87.8781 12.5245H81.6906C80.3781 19.462 81.8781 25.337 87.2531 31.0245C88.6281 32.5245 92.1905 35.212 90.0656 43.7745Z" fill="#FF2E00" fill-opacity="0.54"/>
</svg>
