<svg width="150" height="150" viewBox="0 0 150 150" fill="none" xmlns="http://www.w3.org/2000/svg">
<path d="M128.562 92.875L137.5 83.9375L128.562 75L106.25 97.3125L52.6875 43.75L75 21.4375L66.0625 12.5L57.125 21.4375L48.1875 12.5L34.8125 25.875L25.875 16.9375L16.9375 25.875L25.875 34.8125L12.5 48.1875L21.4375 57.125L12.5 66.0625L21.4375 75L43.75 52.6875L97.3125 106.25L75 128.562L83.9375 137.5L92.875 128.562L101.813 137.5L115.188 124.125L124.125 133.063L133.063 124.125L124.125 115.188L137.5 101.813L128.562 92.875Z" fill="#F57C00" fill-opacity="0.54"/>
</svg>
