<svg width="150" height="150" viewBox="0 0 150 150" fill="none" xmlns="http://www.w3.org/2000/svg">
<path opacity="0.3" d="M81.251 31.25C64.6885 31.25 51.3135 44.125 50.1885 60.4375L41.876 75H50.001V100H68.751V118.75H87.501V94.0625L93.0635 91.375C104.438 86.75 112.501 75.5625 112.501 62.5C112.501 45.25 98.501 31.25 81.251 31.25ZM105.126 55.9375L99.8135 60.0625C99.9385 60.8125 100.001 61.625 100.001 62.5C100.001 63.3125 99.9385 64.125 99.876 64.9375L105.063 69.0625C105.563 69.4375 105.688 70.0625 105.376 70.625L100.376 79.3125C100.063 79.875 99.376 80.0625 98.876 79.875L92.6885 77.375C91.376 78.375 90.001 79.1875 88.501 79.8125L87.501 86.4375C87.4385 87.0625 86.876 87.5 86.251 87.5H76.251C75.626 87.5 75.126 87.0625 75.001 86.4375L74.0635 79.8125C72.501 79.1875 71.126 78.375 69.8135 77.375L63.626 79.875C63.0635 80.0625 62.376 79.875 62.0635 79.3125L57.0635 70.625C56.751 70.125 56.876 69.4375 57.376 69.0625L62.626 64.9375C62.5635 64.125 62.501 63.3125 62.501 62.5C62.501 61.6875 62.626 60.8125 62.751 60.0625L57.4385 55.9375C56.9385 55.5625 56.8135 54.9375 57.126 54.3125L62.126 45.6875C62.4385 45.125 63.0635 44.9375 63.626 45.125L69.876 47.625C71.126 46.6875 72.5635 45.8125 74.0635 45.1875L75.001 38.5625C75.126 37.9375 75.626 37.5 76.251 37.5H86.251C86.876 37.5 87.376 37.9375 87.501 38.5625L88.4385 45.1875C89.9385 45.8125 91.3135 46.625 92.626 47.625L98.876 45.125C99.4385 44.9375 100.126 45.125 100.376 45.6875L105.376 54.3125C105.688 54.875 105.563 55.5625 105.126 55.9375Z" fill="#FFA800" fill-opacity="0.54"/>
<path d="M98.8752 45.125L92.6252 47.625C91.3127 46.625 89.9377 45.8125 88.4377 45.1875L87.5002 38.5625C87.3752 37.9375 86.8752 37.5 86.2502 37.5H76.2502C75.6252 37.5 75.1252 37.9375 75.0627 38.5625L74.1252 45.1875C72.6252 45.8125 71.1877 46.625 69.9377 47.625L63.6877 45.125C63.1252 44.9375 62.4377 45.125 62.1877 45.6875L57.1877 54.3125C56.8752 54.875 57.0002 55.5625 57.5002 55.9375L62.8127 60.0625C62.6252 60.8125 62.5002 61.6875 62.5002 62.5C62.5002 63.3125 62.5627 64.125 62.6877 64.9375L57.4377 69.0625C56.9377 69.4375 56.8127 70.125 57.1252 70.625L62.1252 79.3125C62.4377 79.875 63.0627 80.0625 63.6877 79.875L69.8752 77.375C71.1877 78.375 72.5627 79.1875 74.1252 79.8125L75.0002 86.4375C75.1252 87.0625 75.6252 87.5 76.2502 87.5H86.2502C86.8752 87.5 87.3752 87.0625 87.5002 86.4375L88.4377 79.8125C89.9377 79.1875 91.3752 78.375 92.6252 77.375L98.8127 79.875C99.3752 80.125 100.063 79.875 100.313 79.3125L105.313 70.625C105.625 70.0625 105.5 69.4375 105 69.0625L99.8127 64.9375C99.9377 64.125 100 63.3125 100 62.5C100 61.625 99.9377 60.8125 99.8127 60.0625L105.125 55.9375C105.625 55.5625 105.75 54.875 105.438 54.3125L100.438 45.6875C100.125 45.125 99.4377 44.9375 98.8752 45.125ZM81.2502 71.4375C76.3127 71.4375 72.3127 67.4375 72.3127 62.5C72.3127 57.5625 76.3127 53.5625 81.2502 53.5625C86.1877 53.5625 90.1877 57.5625 90.1877 62.5C90.1877 67.4375 86.1877 71.4375 81.2502 71.4375Z" fill="#FFA800" fill-opacity="0.54"/>
<path d="M124.626 56.625C121.938 36.1875 104.438 20 83.813 18.8125C82.938 18.75 82.1255 18.75 81.2505 18.75C59.188 18.75 41.063 35.0625 38.0005 56.25L25.938 78C23.3755 82.125 26.3755 87.5 31.2505 87.5H37.5005V100C37.5005 106.875 43.1255 112.5 50.0005 112.5H56.2505V131.25H100.001V102C116.376 94.1875 127.188 76.5 124.626 56.625ZM93.063 91.4375L87.5005 94.0625V118.75H68.7505V100H50.0005V75H41.8755L50.188 60.4375C51.313 44.125 64.688 31.25 81.2505 31.25C98.5005 31.25 112.501 45.25 112.501 62.5C112.501 75.5625 104.438 86.75 93.063 91.4375Z" fill="#FFA800" fill-opacity="0.54"/>
</svg>
