<svg width="150" height="150" viewBox="0 0 150 150" fill="none" xmlns="http://www.w3.org/2000/svg">
<path opacity="0.5" d="M103.125 31.25C93.5 31.25 84.125 37.4375 80.875 46H69.1875C65.875 37.4375 56.5 31.25 46.875 31.25C34.375 31.25 25 40.625 25 53.125C25 71.1875 44.625 89 74.375 115.938L75 116.562L75.625 115.938C105.375 89 125 71.1875 125 53.125C125 40.625 115.625 31.25 103.125 31.25Z" fill="#F44336" fill-opacity="0.54"/>
<path fill-rule="evenodd" clip-rule="evenodd" d="M75 31.8125C81.8125 23.8125 92.25 18.75 103.125 18.75C122.375 18.75 137.5 33.875 137.5 53.125C137.5 76.7306 116.285 95.9684 84.1418 125.116L84.0625 125.188L75 133.438L65.9375 125.25L65.6908 125.026C33.6415 95.9015 12.5 76.6896 12.5 53.125C12.5 33.875 27.625 18.75 46.875 18.75C57.75 18.75 68.1875 23.8125 75 31.8125ZM75 116.562L75.625 115.938C105.375 89 125 71.1875 125 53.125C125 40.625 115.625 31.25 103.125 31.25C93.5 31.25 84.125 37.4375 80.875 46H69.1875C65.875 37.4375 56.5 31.25 46.875 31.25C34.375 31.25 25 40.625 25 53.125C25 71.1875 44.625 89 74.375 115.938L75 116.562Z" fill="#F44336" fill-opacity="0.54"/>
</svg>
