<svg width="150" height="150" viewBox="0 0 150 150" fill="none" xmlns="http://www.w3.org/2000/svg">
<path d="M81.2438 18.75C50.1813 18.75 24.9939 43.9375 24.9939 75H6.2439L30.5564 99.3125L30.9939 100.188L56.2438 75H37.4938C37.4938 50.8125 57.0563 31.25 81.2438 31.25C105.431 31.25 124.994 50.8125 124.994 75C124.994 99.1875 105.431 118.75 81.2438 118.75C69.1813 118.75 58.2438 113.813 50.3688 105.875L41.4938 114.75C51.6813 124.938 65.6813 131.25 81.2438 131.25C112.306 131.25 137.494 106.062 137.494 75C137.494 43.9375 112.306 18.75 81.2438 18.75ZM74.9938 50V81.25L101.556 97L106.369 89L84.3688 75.9375V50H74.9938Z" fill="#FF4D00" fill-opacity="0.54"/>
</svg>
