<svg width="150" height="150" viewBox="0 0 150 150" fill="none" xmlns="http://www.w3.org/2000/svg">
<path opacity="0.3" d="M31.25 118.75H118.75V31.25H31.25V118.75ZM43.75 65.625H65.625V43.75H84.375V65.625H106.25V84.375H84.375V106.25H65.625V84.375H43.75V65.625Z" fill="#FF2E00" fill-opacity="0.54"/>
<path d="M131.25 31.25C131.25 24.375 125.625 18.75 118.75 18.75H31.25C24.375 18.75 18.8125 24.375 18.8125 31.25L18.75 118.75C18.75 125.625 24.375 131.25 31.25 131.25H118.75C125.625 131.25 131.25 125.625 131.25 118.75V31.25ZM118.75 118.75H31.25V31.25H118.75V118.75ZM65.625 106.25H84.375V84.375H106.25V65.625H84.375V43.75H65.625V65.625H43.75V84.375H65.625V106.25Z" fill="#FF2E00" fill-opacity="0.54"/>
</svg>
