<svg width="150" height="150" viewBox="0 0 150 150" fill="none" xmlns="http://www.w3.org/2000/svg">
<path fill-rule="evenodd" clip-rule="evenodd" d="M75 12.5C50.875 12.5 31.25 32.125 31.25 56.25C31.25 71.125 38.6875 84.1875 50 92.125V106.25C50 109.688 52.8125 112.5 56.25 112.5H93.75C97.1875 112.5 100 109.688 100 106.25V92.125C111.312 84.1875 118.75 71.125 118.75 56.25C118.75 32.125 99.125 12.5 75 12.5ZM56.25 131.25C56.25 134.688 59.0625 137.5 62.5 137.5H87.5C90.9375 137.5 93.75 134.688 93.75 131.25V125H56.25V131.25ZM87.5 85.625L92.8125 81.875C101.25 76 106.25 66.4375 106.25 56.25C106.25 39 92.25 25 75 25C57.75 25 43.75 39 43.75 56.25C43.75 66.4375 48.75 76 57.1875 81.875L62.5 85.625V100H87.5V85.625Z" fill="#FFC107" fill-opacity="0.54"/>
</svg>
