<svg width="150" height="150" viewBox="0 0 150 150" fill="none" xmlns="http://www.w3.org/2000/svg">
<path opacity="0.5" fill-rule="evenodd" clip-rule="evenodd" d="M115.563 61.8126L117.188 44.3751L100.063 40.5001L91.125 25.4376L75 32.3751L58.875 25.4376L49.9375 40.5001L32.8125 44.3751L34.4375 61.7501L22.875 75.0001L34.4375 88.1876L32.8125 105.688L49.9375 109.563L58.875 124.625L75 117.625L91.125 124.563L100.063 109.5L117.188 105.625L115.563 88.1876L127.125 75.0001L115.563 61.8126ZM81.25 106.25H68.75V93.75H81.25V106.25ZM68.75 81.25H81.25V43.75H68.75V81.25Z" fill="#FFC400" fill-opacity="0.54"/>
<path fill-rule="evenodd" clip-rule="evenodd" d="M108.063 29.4999L130.625 34.6249L128.5 57.6249L143.75 74.9999L128.5 92.3749L130.625 115.375L108.063 120.5L96.25 140.375L75 131.25L53.75 140.437L41.9375 120.562L19.375 115.437L21.5 92.3749L6.25 74.9999L21.5 57.5624L19.375 34.5624L41.9375 29.4999L53.75 9.62488L75 18.7499L96.25 9.62488L108.063 29.4999ZM100.063 109.5L117.188 105.625L115.563 88.1875L127.125 75L115.563 61.8125L117.188 44.375L100.063 40.5L91.125 25.4375L75 32.375L58.875 25.5L49.9375 40.5625L32.8125 44.375L34.4375 61.75L22.875 75L34.4375 88.125L32.8125 105.625L49.9375 109.5L58.875 124.563L75 117.625L91.125 124.563L100.063 109.5Z" fill="#FFC400" fill-opacity="0.54"/>
<path d="M68.75 93.75H81.25V106.25H68.75V93.75Z" fill="#FFC400" fill-opacity="0.54"/>
<path d="M68.75 43.75H81.25V81.25H68.75V43.75Z" fill="#FFC400" fill-opacity="0.54"/>
</svg>
