<svg width="150" height="150" viewBox="0 0 150 150" fill="none" xmlns="http://www.w3.org/2000/svg">
<path opacity="0.5" d="M75.0625 112.5C65.8125 112.5 57.875 107.438 53.5 100H31.25V118.75H118.75V100H96.5625C92.25 107.438 84.25 112.5 75.0625 112.5Z" fill="#00E5FF" fill-opacity="0.54"/>
<path fill-rule="evenodd" clip-rule="evenodd" d="M118.75 18.75H31.25C24.375 18.75 18.75 24.375 18.75 31.25V118.75C18.75 125.625 24.3125 131.25 31.25 131.25H118.75C125.625 131.25 131.25 125.625 131.25 118.75V31.25C131.25 24.375 125.625 18.75 118.75 18.75ZM118.75 100V118.75H31.25V100H53.5C57.8125 107.438 65.8125 112.5 75.0625 112.5C84.3125 112.5 92.25 107.438 96.625 100H118.75ZM87.5 87.5H118.75V31.25H31.25V87.5H62.5C62.5 94.375 68.125 100 75 100C81.875 100 87.5 94.375 87.5 87.5Z" fill="#00E5FF" fill-opacity="0.54"/>
</svg>
