<svg width="150" height="150" viewBox="0 0 150 150" fill="none" xmlns="http://www.w3.org/2000/svg">
<path opacity="0.3" d="M43.75 25H100V112.5H43.75V25Z" fill="#FF2E00" fill-opacity="0.54"/>
<path d="M96.8751 6.25H46.875C38.25 6.25 31.25 13.25 31.25 21.875V128.125C31.25 136.75 38.25 143.75 46.875 143.75H96.8751C105.5 143.75 112.5 136.75 112.5 128.125V21.875C112.5 13.25 105.5 6.25 96.8751 6.25ZM71.875 137.5C66.6875 137.5 62.5 133.312 62.5 128.125C62.5 122.937 66.6875 118.75 71.875 118.75C77.0625 118.75 81.25 122.937 81.25 128.125C81.25 133.312 77.0625 137.5 71.875 137.5ZM100 112.5H43.75V25H100V112.5Z" fill="#FF2E00" fill-opacity="0.54"/>
</svg>
