<svg width="150" height="150" viewBox="0 0 150 150" fill="none" xmlns="http://www.w3.org/2000/svg">
<path fill-rule="evenodd" clip-rule="evenodd" d="M125 18.75H118.75V6.25H106.25V18.75H43.75V6.25H31.25V18.75H25C18.125 18.75 12.5 24.375 12.5 31.25V131.25C12.5 138.125 18.125 143.75 25 143.75H125C131.875 143.75 137.5 138.125 137.5 131.25V31.25C137.5 24.375 131.875 18.75 125 18.75ZM125 31.25V50H25V31.25H125ZM25 62.5V131.25H125V62.5H25Z" fill="#00E676" fill-opacity="0.54"/>
<path d="M25 31.3125H125V50H25V31.3125Z" fill="#00E676" fill-opacity="0.54"/>
<path d="M54.1134 80.112V101.144C54.1134 104.4 53.1894 106.908 51.3414 108.668C49.5227 110.428 47.0587 111.308 43.9494 111.308C40.6934 111.308 38.0827 110.384 36.1174 108.536C34.1521 106.688 33.1694 104.063 33.1694 100.66H40.6494C40.6494 101.951 40.9134 102.933 41.4414 103.608C41.9694 104.253 42.7321 104.576 43.7294 104.576C44.6387 104.576 45.3427 104.283 45.8414 103.696C46.3401 103.109 46.5894 102.259 46.5894 101.144V80.112H54.1134ZM58.6949 98.68C58.6949 96.1573 59.1642 93.9427 60.1029 92.036C61.0709 90.1293 62.3762 88.6627 64.0189 87.636C65.6616 86.6093 67.4949 86.096 69.5189 86.096C71.2496 86.096 72.7602 86.448 74.0509 87.152C75.3709 87.856 76.3829 88.78 77.0869 89.924V86.448H84.6109V111H77.0869V107.524C76.3536 108.668 75.3269 109.592 74.0069 110.296C72.7162 111 71.2056 111.352 69.4749 111.352C67.4802 111.352 65.6616 110.839 64.0189 109.812C62.3762 108.756 61.0709 107.275 60.1029 105.368C59.1642 103.432 58.6949 101.203 58.6949 98.68ZM77.0869 98.724C77.0869 96.8467 76.5589 95.3653 75.5029 94.28C74.4762 93.1947 73.2149 92.652 71.7189 92.652C70.2229 92.652 68.9469 93.1947 67.8909 94.28C66.8642 95.336 66.3509 96.8027 66.3509 98.68C66.3509 100.557 66.8642 102.053 67.8909 103.168C68.9469 104.253 70.2229 104.796 71.7189 104.796C73.2149 104.796 74.4762 104.253 75.5029 103.168C76.5589 102.083 77.0869 100.601 77.0869 98.724ZM105.014 86.184C107.889 86.184 110.177 87.1227 111.878 89C113.609 90.848 114.474 93.4 114.474 96.656V111H106.994V97.668C106.994 96.0253 106.569 94.7493 105.718 93.84C104.868 92.9307 103.724 92.476 102.286 92.476C100.849 92.476 99.7048 92.9307 98.8542 93.84C98.0035 94.7493 97.5782 96.0253 97.5782 97.668V111H90.0542V86.448H97.5782V89.704C98.3408 88.6187 99.3675 87.768 100.658 87.152C101.949 86.5067 103.401 86.184 105.014 86.184Z" fill="#00E676" fill-opacity="0.54"/>
</svg>
