<svg width="150" height="150" viewBox="0 0 150 150" fill="none" xmlns="http://www.w3.org/2000/svg">
<path fill-rule="evenodd" clip-rule="evenodd" d="M125 18.75H118.75V6.25H106.25V18.75H43.75V6.25H31.25V18.75H25C18.125 18.75 12.5 24.375 12.5 31.25V131.25C12.5 138.125 18.125 143.75 25 143.75H125C131.875 143.75 137.5 138.125 137.5 131.25V31.25C137.5 24.375 131.875 18.75 125 18.75ZM125 31.25V50H25V31.25H125ZM25 62.5V131.25H125V62.5H25Z" fill="#52FF00" fill-opacity="0.54"/>
<path opacity="0.5" d="M25 31.3125H125V50H25V31.3125Z" fill="#52FF00" fill-opacity="0.54"/>
<path d="M50.3311 81.516V101.592C50.3311 104.7 49.4491 107.094 47.6851 108.774C45.9491 110.454 43.5971 111.294 40.6291 111.294C37.5211 111.294 35.0291 110.412 33.1531 108.648C31.2771 106.884 30.3391 104.378 30.3391 101.13H37.4791C37.4791 102.362 37.7311 103.3 38.2351 103.944C38.7391 104.56 39.4671 104.868 40.4191 104.868C41.2871 104.868 41.9591 104.588 42.4351 104.028C42.9111 103.468 43.1491 102.656 43.1491 101.592V81.516H50.3311ZM79.2743 87.564V111H72.0923V107.808C71.3643 108.844 70.3703 109.684 69.1103 110.328C67.8783 110.944 66.5063 111.252 64.9943 111.252C63.2023 111.252 61.6203 110.86 60.2483 110.076C58.8763 109.264 57.8123 108.102 57.0563 106.59C56.3003 105.078 55.9223 103.3 55.9223 101.256V87.564H63.0623V100.29C63.0623 101.858 63.4683 103.076 64.2803 103.944C65.0923 104.812 66.1843 105.246 67.5563 105.246C68.9563 105.246 70.0623 104.812 70.8743 103.944C71.6863 103.076 72.0923 101.858 72.0923 100.29V87.564H79.2743ZM91.6151 79.92V111H84.4331V79.92H91.6151ZM120.76 87.564L106.06 122.13H98.3318L103.708 110.202L94.1738 87.564H102.196L107.614 102.222L112.99 87.564H120.76Z" fill="#52FF00" fill-opacity="0.54"/>
</svg>
