<svg width="150" height="150" viewBox="0 0 150 150" fill="none" xmlns="http://www.w3.org/2000/svg">
<path fill-rule="evenodd" clip-rule="evenodd" d="M125 18.75H118.75V6.25H106.25V18.75H43.75V6.25H31.25V18.75H25C18.125 18.75 12.5 24.375 12.5 31.25V131.25C12.5 138.125 18.125 143.75 25 143.75H125C131.875 143.75 137.5 138.125 137.5 131.25V31.25C137.5 24.375 131.875 18.75 125 18.75ZM125 31.25V50H25V31.25H125ZM25 62.5V131.25H125V62.5H25Z" fill="#FFA800" fill-opacity="0.54"/>
<path opacity="0.5" d="M25 31.3125H125V50H25V31.3125Z" fill="#FFA800" fill-opacity="0.54"/>
<path d="M45.2781 83.324V101.488C45.2781 104.3 44.4801 106.466 42.8841 107.986C41.3135 109.506 39.1855 110.266 36.5001 110.266C33.6881 110.266 31.4335 109.468 29.7361 107.872C28.0388 106.276 27.1901 104.009 27.1901 101.07H33.6501C33.6501 102.185 33.8781 103.033 34.3341 103.616C34.7901 104.173 35.4488 104.452 36.3101 104.452C37.0955 104.452 37.7035 104.199 38.1341 103.692C38.5648 103.185 38.7801 102.451 38.7801 101.488V83.324H45.2781ZM71.4649 88.796V110H64.9669V107.112C64.3082 108.049 63.4089 108.809 62.2689 109.392C61.1542 109.949 59.9129 110.228 58.5449 110.228C56.9236 110.228 55.4922 109.873 54.2509 109.164C53.0096 108.429 52.0469 107.378 51.3629 106.01C50.6789 104.642 50.3369 103.033 50.3369 101.184V88.796H56.7969V100.31C56.7969 101.729 57.1642 102.831 57.8989 103.616C58.6336 104.401 59.6216 104.794 60.8629 104.794C62.1296 104.794 63.1302 104.401 63.8649 103.616C64.5996 102.831 64.9669 101.729 64.9669 100.31V88.796H71.4649ZM89.0524 88.568C91.535 88.568 93.511 89.3787 94.9804 91C96.475 92.596 97.2224 94.8 97.2224 97.612V110H90.7624V98.486C90.7624 97.0673 90.395 95.9653 89.6604 95.18C88.9257 94.3947 87.9377 94.002 86.6964 94.002C85.455 94.002 84.467 94.3947 83.7324 95.18C82.9977 95.9653 82.6304 97.0673 82.6304 98.486V110H76.1324V88.796H82.6304V91.608C83.289 90.6707 84.1757 89.936 85.2904 89.404C86.405 88.8467 87.659 88.568 89.0524 88.568ZM121.726 99.056C121.726 99.664 121.688 100.297 121.612 100.956H106.906C107.007 102.273 107.425 103.287 108.16 103.996C108.92 104.68 109.845 105.022 110.934 105.022C112.555 105.022 113.683 104.338 114.316 102.97H121.232C120.877 104.363 120.231 105.617 119.294 106.732C118.382 107.847 117.229 108.721 115.836 109.354C114.443 109.987 112.885 110.304 111.162 110.304C109.085 110.304 107.235 109.861 105.614 108.974C103.993 108.087 102.726 106.821 101.814 105.174C100.902 103.527 100.446 101.602 100.446 99.398C100.446 97.194 100.889 95.2687 101.776 93.622C102.688 91.9753 103.955 90.7087 105.576 89.822C107.197 88.9353 109.059 88.492 111.162 88.492C113.214 88.492 115.038 88.9227 116.634 89.784C118.23 90.6453 119.471 91.874 120.358 93.47C121.27 95.066 121.726 96.928 121.726 99.056ZM115.076 97.346C115.076 96.2313 114.696 95.3447 113.936 94.686C113.176 94.0273 112.226 93.698 111.086 93.698C109.997 93.698 109.072 94.0147 108.312 94.648C107.577 95.2813 107.121 96.1807 106.944 97.346H115.076Z" fill="#FFA800" fill-opacity="0.54"/>
</svg>
