<svg width="150" height="150" viewBox="0 0 150 150" fill="none" xmlns="http://www.w3.org/2000/svg">
<path opacity="0.3" d="M25 106.25H125V43.75H25V106.25ZM106.25 50H118.75V62.5H106.25V50ZM106.25 68.75H118.75V81.25H106.25V68.75ZM87.5 50H100V62.5H87.5V50ZM87.5 68.75H100V81.25H87.5V68.75ZM68.75 50H81.25V62.5H68.75V50ZM68.75 68.75H81.25V81.25H68.75V68.75ZM50 50H62.5V62.5H50V50ZM50 68.75H62.5V81.25H50V68.75ZM50 87.5H100V100H50V87.5ZM31.25 50H43.75V62.5H31.25V50ZM31.25 68.75H43.75V81.25H31.25V68.75Z" fill="#E91E63" fill-opacity="0.54"/>
<path d="M125 31.25H25C18.125 31.25 12.5625 36.875 12.5625 43.75L12.5 106.25C12.5 113.125 18.125 118.75 25 118.75H125C131.875 118.75 137.5 113.125 137.5 106.25V43.75C137.5 36.875 131.875 31.25 125 31.25ZM125 106.25H25V43.75H125V106.25ZM68.75 50H81.25V62.5H68.75V50ZM68.75 68.75H81.25V81.25H68.75V68.75ZM50 50H62.5V62.5H50V50ZM50 68.75H62.5V81.25H50V68.75ZM31.25 68.75H43.75V81.25H31.25V68.75ZM31.25 50H43.75V62.5H31.25V50ZM50 87.5H100V100H50V87.5ZM87.5 68.75H100V81.25H87.5V68.75ZM87.5 50H100V62.5H87.5V50ZM106.25 68.75H118.75V81.25H106.25V68.75ZM106.25 50H118.75V62.5H106.25V50Z" fill="#E91E63" fill-opacity="0.54"/>
</svg>
