<svg width="150" height="150" viewBox="0 0 150 150" fill="none" xmlns="http://www.w3.org/2000/svg">
<path opacity="0.3" d="M46.614 59.1309C35.489 70.3183 34.6765 87.7558 43.9265 100.006C53.489 84.1308 67.239 71.0059 83.739 62.5059C69.614 74.4433 59.0515 90.2558 53.239 108.256C57.9265 110.943 63.1765 112.506 68.739 112.506C77.114 112.506 84.9265 109.256 90.864 103.381C101.739 92.5058 108.426 62.3184 111.239 38.8184C87.739 41.5684 57.5515 48.2559 46.614 59.1309Z" fill="#00FF75" fill-opacity="0.54"/>
<path d="M37.8091 50.3247C20.7466 67.3873 20.7466 95.1373 37.8091 112.2C46.3716 120.762 57.5591 125.012 68.7467 125.012C79.9342 125.012 91.1217 120.762 99.6842 112.2C121.434 90.4498 124.997 25.0122 124.997 25.0122C124.997 25.0122 59.5592 28.5747 37.8091 50.3247ZM90.8717 103.387C84.9342 109.262 77.1217 112.512 68.7467 112.512C63.1842 112.512 57.9342 110.95 53.2466 108.262C58.9967 90.2623 69.6217 74.4498 83.7467 62.5122C67.3092 71.0123 53.4966 84.1373 43.9341 100.012C34.6841 87.7623 35.4966 70.3248 46.6841 59.1372C57.5591 48.2622 87.7467 41.5747 111.247 38.7622C108.434 62.2622 101.747 92.4498 90.8717 103.387Z" fill="#00FF75" fill-opacity="0.54"/>
</svg>
