<svg width="150" height="150" viewBox="0 0 150 150" fill="none" xmlns="http://www.w3.org/2000/svg">
<path fill-rule="evenodd" clip-rule="evenodd" d="M125 18.75H118.75V6.25H106.25V18.75H43.75V6.25H31.25V18.75H25C18.125 18.75 12.5 24.375 12.5 31.25V131.25C12.5 138.125 18.125 143.75 25 143.75H125C131.875 143.75 137.5 138.125 137.5 131.25V31.25C137.5 24.375 131.875 18.75 125 18.75ZM125 31.25V50H25V31.25H125ZM25 62.5V131.25H125V62.5H25Z" fill="#3D5AFE" fill-opacity="0.54"/>
<path opacity="0.5" d="M25 31.3125H125V50H25V31.3125Z" fill="#3D5AFE" fill-opacity="0.54"/>
<path d="M67.1709 80.112V111H59.6469V92.476L52.7389 111H46.6669L39.7149 92.432V111H32.1909V80.112H41.0789L49.7469 101.496L58.3269 80.112H67.1709ZM71.0855 98.68C71.0855 96.1573 71.5548 93.9427 72.4935 92.036C73.4615 90.1293 74.7668 88.6627 76.4095 87.636C78.0522 86.6093 79.8855 86.096 81.9095 86.096C83.6402 86.096 85.1508 86.448 86.4415 87.152C87.7615 87.856 88.7735 88.78 89.4775 89.924V86.448H97.0015V111H89.4775V107.524C88.7442 108.668 87.7175 109.592 86.3975 110.296C85.1068 111 83.5962 111.352 81.8655 111.352C79.8708 111.352 78.0522 110.839 76.4095 109.812C74.7668 108.756 73.4615 107.275 72.4935 105.368C71.5548 103.432 71.0855 101.203 71.0855 98.68ZM89.4775 98.724C89.4775 96.8467 88.9495 95.3653 87.8935 94.28C86.8669 93.1947 85.6055 92.652 84.1095 92.652C82.6135 92.652 81.3375 93.1947 80.2815 94.28C79.2548 95.336 78.7415 96.8027 78.7415 98.68C78.7415 100.557 79.2548 102.053 80.2815 103.168C81.3375 104.253 82.6135 104.796 84.1095 104.796C85.6055 104.796 86.8669 104.253 87.8935 103.168C88.9495 102.083 89.4775 100.601 89.4775 98.724ZM109.969 90.54C110.849 89.1907 111.949 88.1347 113.269 87.372C114.589 86.58 116.055 86.184 117.669 86.184V94.148H115.601C113.723 94.148 112.315 94.5587 111.377 95.38C110.438 96.172 109.969 97.58 109.969 99.604V111H102.445V86.448H109.969V90.54Z" fill="#3D5AFE" fill-opacity="0.54"/>
</svg>
