<svg width="150" height="150" viewBox="0 0 150 150" fill="none" xmlns="http://www.w3.org/2000/svg">
<path opacity="0.3" d="M89.625 54.875C84.5 52.0625 80.8125 50 75 50C69.1875 50 65.5 52.0625 60.375 54.8125C55.9375 57.25 50.75 60.125 43.75 61.5625V71.875C43.75 89.125 57.75 103.125 75 103.125C92.25 103.125 106.25 89.125 106.25 71.875V61.5625C99.25 60.125 94.0625 57.25 89.625 54.875ZM93.75 70.3125C89.0625 69 85.875 67.125 83.0625 65.4375C80.1875 63.75 78.0625 62.5 75 62.5C71.9375 62.5 69.75 63.75 66.8125 65.5C64.0625 67.125 60.8125 69 56.25 70.25V63.75C59.25 62.6875 61.5 61.375 63.625 60.125C67 58.125 70.1875 56.25 75 56.25C79.8125 56.25 82.9375 58.125 86.25 60.125C88.375 61.375 90.6875 62.75 93.75 63.8125V70.3125Z" fill="#F57C00" fill-opacity="0.54"/>
<path d="M121.875 37.5C113.688 37.5 107.062 43.8125 106.375 51.875C94.625 48.75 88.625 40.625 75 40.625C61.3125 40.625 55.375 48.75 43.625 51.875C42.9375 43.875 36.3125 37.5 28.125 37.5C19.5 37.5 12.5 44.5 12.5 53.125V56.25C12.5 93.75 35 105.062 53.25 106.125C59.5625 110.125 67 112.5 75 112.5C83 112.5 90.4375 110.125 96.75 106.125C115 105.062 137.5 93.75 137.5 56.25V53.125C137.5 44.5 130.5 37.5 121.875 37.5ZM21.875 56.25V53.125C21.875 49.6875 24.6875 46.875 28.125 46.875C31.5625 46.875 34.375 49.6875 34.375 53.125V71.875C34.375 79.875 36.75 87.3125 40.6875 93.625C31.1875 89.1875 21.875 79.0625 21.875 56.25ZM43.75 71.875V61.5625C50.75 60.125 55.9375 57.25 60.375 54.8125C65.5 52.0625 69.1875 50 75 50C80.8125 50 84.5 52.0625 89.625 54.875C94.0625 57.3125 99.25 60.125 106.25 61.625V71.9375C106.25 89.1875 92.25 103.188 75 103.188C57.75 103.188 43.75 89.125 43.75 71.875ZM128.125 56.25C128.125 79.0625 118.812 89.1875 109.312 93.625C113.312 87.3125 115.625 79.875 115.625 71.875V53.125C115.625 49.6875 118.438 46.875 121.875 46.875C125.312 46.875 128.125 49.6875 128.125 53.125V56.25ZM66.8125 65.5C64.0625 67.125 60.8125 69 56.25 70.25V63.75C59.25 62.6875 61.5 61.375 63.625 60.125C67 58.125 70.1875 56.25 75 56.25C79.8125 56.25 82.9375 58.125 86.25 60.125C88.375 61.375 90.6875 62.75 93.75 63.8125V70.3125C89.0625 69 85.875 67.125 83.0625 65.4375C80.1875 63.75 78.0625 62.5 75 62.5C71.9375 62.5 69.75 63.75 66.8125 65.5Z" fill="#F57C00" fill-opacity="0.54"/>
</svg>
