<svg width="150" height="150" viewBox="0 0 150 150" fill="none" xmlns="http://www.w3.org/2000/svg">
<path fill-rule="evenodd" clip-rule="evenodd" d="M125 18.75H118.75V6.25H106.25V18.75H43.75V6.25H31.25V18.75H25C18.125 18.75 12.5 24.375 12.5 31.25V131.25C12.5 138.125 18.125 143.75 25 143.75H125C131.875 143.75 137.5 138.125 137.5 131.25V31.25C137.5 24.375 131.875 18.75 125 18.75ZM125 31.25V50H25V31.25H125ZM25 62.5V131.25H125V62.5H25Z" fill="#FF00E5" fill-opacity="0.54"/>
<path opacity="0.5" d="M25 31.3125H125V50H25V31.3125Z" fill="#FF00E5" fill-opacity="0.54"/>
<path d="M63.1807 80.112V111H55.6567V92.476L48.7487 111H42.6767L35.7247 92.432V111H28.2007V80.112H37.0887L45.7567 101.496L54.3367 80.112H63.1807ZM67.0953 98.68C67.0953 96.1573 67.5646 93.9427 68.5033 92.036C69.4713 90.1293 70.7766 88.6627 72.4193 87.636C74.0619 86.6093 75.8953 86.096 77.9193 86.096C79.6499 86.096 81.1606 86.448 82.4513 87.152C83.7713 87.856 84.7833 88.78 85.4873 89.924V86.448H93.0113V111H85.4873V107.524C84.7539 108.668 83.7273 109.592 82.4073 110.296C81.1166 111 79.6059 111.352 77.8753 111.352C75.8806 111.352 74.0619 110.839 72.4193 109.812C70.7766 108.756 69.4713 107.275 68.5033 105.368C67.5646 103.432 67.0953 101.203 67.0953 98.68ZM85.4873 98.724C85.4873 96.8467 84.9593 95.3653 83.9033 94.28C82.8766 93.1947 81.6153 92.652 80.1193 92.652C78.6233 92.652 77.3473 93.1947 76.2913 94.28C75.2646 95.336 74.7513 96.8027 74.7513 98.68C74.7513 100.557 75.2646 102.053 76.2913 103.168C77.3473 104.253 78.6233 104.796 80.1193 104.796C81.6153 104.796 82.8766 104.253 83.9033 103.168C84.9593 102.083 85.4873 100.601 85.4873 98.724ZM123.535 86.448L108.135 122.66H100.039L105.671 110.164L95.6826 86.448H104.087L109.763 101.804L115.395 86.448H123.535Z" fill="#FF00E5" fill-opacity="0.54"/>
</svg>
