<svg width="150" height="150" viewBox="0 0 150 150" fill="none" xmlns="http://www.w3.org/2000/svg">
<path opacity="0.5" d="M75 75C78.4375 75 81.25 72.1875 81.25 68.75V31.25C81.25 27.8125 78.4375 25 75 25C71.5625 25 68.75 27.8125 68.75 31.25V68.75C68.75 72.1875 71.5625 75 75 75Z" fill="#D84315" fill-opacity="0.54"/>
<path fill-rule="evenodd" clip-rule="evenodd" d="M93.75 68.75C93.75 79.125 85.375 87.5 75 87.5C64.625 87.5 56.25 79.125 56.25 68.75V31.25C56.25 20.875 64.625 12.5 75 12.5C85.375 12.5 93.75 20.875 93.75 31.25V68.75ZM75 25C71.5625 25 68.75 27.8125 68.75 31.25V68.75C68.75 72.1875 71.5625 75 75 75C78.4375 75 81.25 72.1875 81.25 68.75V31.25C81.25 27.8125 78.4375 25 75 25Z" fill="#D84315" fill-opacity="0.54"/>
<path d="M106.25 68.75C106.25 86 92.25 100 75 100C57.75 100 43.75 86 43.75 68.75H31.25C31.25 90.8125 47.5625 108.938 68.75 112V131.25H81.25V112C102.438 108.938 118.75 90.8125 118.75 68.75L106.25 68.75Z" fill="#D84315" fill-opacity="0.54"/>
</svg>
