<svg width="150" height="150" viewBox="0 0 150 150" fill="none" xmlns="http://www.w3.org/2000/svg">
<path opacity="0.3" d="M75.0625 112.5C65.8125 112.5 57.875 107.438 53.5 100H31.25V118.75H118.75V100H96.5625C92.25 107.438 84.25 112.5 75.0625 112.5Z" fill="#F57C00" fill-opacity="0.54"/>
<path d="M100 56.25H84.0625V37.5H65.9375V56.25H50L75 81.25L100 56.25ZM118.75 18.75H31.1875C24.25 18.75 18.75 24.375 18.75 31.25V118.75C18.75 125.625 24.25 131.25 31.1875 131.25H118.75C125.625 131.25 131.25 125.625 131.25 118.75V31.25C131.25 24.375 125.625 18.75 118.75 18.75ZM118.75 118.75H31.25V100H53.5C57.8125 107.438 65.8125 112.5 75.0625 112.5C84.3125 112.5 92.25 107.438 96.625 100H118.75V118.75ZM118.75 87.5H87.5625C87.5625 94.375 81.9375 100 75.0625 100C68.1875 100 62.5625 94.375 62.5625 87.5H31.25L31.1875 31.25H118.75V87.5Z" fill="#F57C00" fill-opacity="0.54"/>
</svg>
