<svg width="150" height="150" viewBox="0 0 150 150" fill="none" xmlns="http://www.w3.org/2000/svg">
<path opacity="0.3" d="M50.625 88.4375C61.0625 91.4375 68.75 101.063 68.75 112.5C68.75 116.75 67.5625 120.688 65.75 124.188C68.75 124.75 71.8125 125.063 75 125.063C84.25 125.063 93.125 122.5 100.812 117.875C84.4375 112.125 68.125 100.25 58.3125 81.25C48.375 62.125 48.625 44.3125 51.8125 30.625C35.75 38.9375 24.9375 55.6875 24.9375 75C25 75 25 75 25.0625 75C35.375 75 44.875 80.1875 50.625 88.4375Z" fill="#E91E63" fill-opacity="0.54"/>
<path d="M123.625 109.438C108.188 109.438 82.5625 101.125 69.375 75.5C54.8125 47.3125 66.25 22.5 72.6875 12.5625C39.1875 13.75 12.375 41.1875 12.375 75C12.375 75.875 12.5 76.75 12.5 77.625C16.3125 76 20.5 75 24.875 75C24.875 55.6875 35.6875 38.9375 51.75 30.625C48.625 44.3125 48.375 62.125 58.25 81.25C68.0625 100.25 84.375 112.188 100.75 117.875C93.0625 122.5 84.1875 125.063 74.9375 125.063C71.8125 125.063 68.6875 124.75 65.6875 124.188C63.375 128.563 59.8125 132.125 55.4375 134.438C61.5625 136.438 68.125 137.563 74.875 137.563C96.75 137.563 116 126.313 127.188 109.313C126.125 109.375 124.875 109.438 123.625 109.438Z" fill="#E91E63" fill-opacity="0.54"/>
<path d="M43.75 100H42.625C40 92.75 33.125 87.5 25 87.5C14.625 87.5 6.25 95.875 6.25 106.25C6.25 116.625 14.625 125 25 125C28.875 125 40.5625 125 43.75 125C50.625 125 56.25 119.375 56.25 112.5C56.25 105.625 50.625 100 43.75 100Z" fill="#E91E63" fill-opacity="0.54"/>
</svg>
