<svg width="150" height="150" viewBox="0 0 150 150" fill="none" xmlns="http://www.w3.org/2000/svg">
<path d="M100 25C100 18.125 105.625 12.5 112.5 12.5C119.375 12.5 125 18.125 125 25C125 31.875 119.375 37.5 112.5 37.5C105.625 37.5 100 31.875 100 25ZM129.875 47.375C124.563 45.0625 118.688 43.75 112.5 43.75C108.312 43.75 104.312 44.375 100.5 45.5C104.125 48.9375 106.25 53.75 106.25 58.9375V62.5H137.5V58.9375C137.5 53.875 134.5 49.375 129.875 47.375ZM37.5 37.5C44.375 37.5 50 31.875 50 25C50 18.125 44.375 12.5 37.5 12.5C30.625 12.5 25 18.125 25 25C25 31.875 30.625 37.5 37.5 37.5ZM49.5 45.5C45.6875 44.375 41.6875 43.75 37.5 43.75C31.3125 43.75 25.4375 45.0625 20.125 47.375C15.5 49.375 12.5 53.875 12.5 58.9375V62.5H43.75V58.9375C43.75 53.75 45.875 48.9375 49.5 45.5ZM62.5 25C62.5 18.125 68.125 12.5 75 12.5C81.875 12.5 87.5 18.125 87.5 25C87.5 31.875 81.875 37.5 75 37.5C68.125 37.5 62.5 31.875 62.5 25ZM100 62.5H50V58.9375C50 53.875 53 49.375 57.625 47.375C62.9375 45.0625 68.8125 43.75 75 43.75C81.1875 43.75 87.0625 45.0625 92.375 47.375C97 49.375 100 53.875 100 58.9375V62.5ZM93.75 100C93.75 93.125 99.375 87.5 106.25 87.5C113.125 87.5 118.75 93.125 118.75 100C118.75 106.875 113.125 112.5 106.25 112.5C99.375 112.5 93.75 106.875 93.75 100ZM131.25 137.5H81.25V133.938C81.25 128.875 84.25 124.375 88.875 122.375C94.1875 120.062 100.062 118.75 106.25 118.75C112.438 118.75 118.313 120.062 123.625 122.375C128.25 124.375 131.25 128.875 131.25 133.938V137.5ZM31.25 100C31.25 93.125 36.875 87.5 43.75 87.5C50.625 87.5 56.25 93.125 56.25 100C56.25 106.875 50.625 112.5 43.75 112.5C36.875 112.5 31.25 106.875 31.25 100ZM68.75 137.5H18.75V133.938C18.75 128.875 21.75 124.375 26.375 122.375C31.6875 120.062 37.5625 118.75 43.75 118.75C49.9375 118.75 55.8125 120.062 61.125 122.375C65.75 124.375 68.75 128.875 68.75 133.938V137.5ZM79.6875 81.25V68.75H70.3125V81.25H56.25L75 100L93.75 81.25H79.6875Z" fill="#FFD600" fill-opacity="0.54"/>
</svg>
