<svg width="150" height="150" viewBox="0 0 150 150" fill="none" xmlns="http://www.w3.org/2000/svg">
<path opacity="0.3" d="M81.25 25H37.5V125H112.5V56.25H81.25V25ZM100 87.5V100H81.25V118.75H68.75V100H50V87.5H68.75V68.75H81.25V87.5H100Z" fill="#00E676" fill-opacity="0.54"/>
<path d="M81.25 68.75H68.75V87.5H50V100H68.75V118.75H81.25V100H100V87.5H81.25V68.75ZM87.5 12.5H37.5C30.625 12.5 25 18.125 25 25V125C25 131.875 30.5625 137.5 37.4375 137.5H112.5C119.375 137.5 125 131.875 125 125V50L87.5 12.5ZM112.5 125H37.5V25H81.25V56.25H112.5V125Z" fill="#00E676" fill-opacity="0.54"/>
</svg>
