<svg width="150" height="150" viewBox="0 0 150 150" fill="none" xmlns="http://www.w3.org/2000/svg">
<path opacity="0.5" fill-rule="evenodd" clip-rule="evenodd" d="M125 25V100H50V25H125ZM112.5 37.5H62.5V50H112.5V37.5ZM62.5 56.25H112.5V68.75H62.5V56.25ZM87.5 75H62.5V87.5H87.5V75Z" fill="#EF6C00" fill-opacity="0.54"/>
<path d="M25 137.5H112.5V125H25V37.5H12.5V125C12.5 131.875 18.125 137.5 25 137.5Z" fill="#EF6C00" fill-opacity="0.54"/>
<path fill-rule="evenodd" clip-rule="evenodd" d="M37.5 100V25C37.5 18.125 43.125 12.5 50 12.5H125C131.875 12.5 137.5 18.125 137.5 25V100C137.5 106.875 131.875 112.5 125 112.5H50C43.125 112.5 37.5 106.875 37.5 100ZM50 100H125V25H50V100Z" fill="#EF6C00" fill-opacity="0.54"/>
<path d="M62.5 56.25H112.5V68.75H62.5V56.25Z" fill="#EF6C00" fill-opacity="0.54"/>
<path d="M62.5 75H87.5V87.5H62.5V75Z" fill="#EF6C00" fill-opacity="0.54"/>
<path d="M62.5 37.5H112.5V50H62.5V37.5Z" fill="#EF6C00" fill-opacity="0.54"/>
</svg>
