<svg width="150" height="150" viewBox="0 0 150 150" fill="none" xmlns="http://www.w3.org/2000/svg">
<path fill-rule="evenodd" clip-rule="evenodd" d="M125 18.75H118.75V6.25H106.25V18.75H43.75V6.25H31.25V18.75H25C18.125 18.75 12.5 24.375 12.5 31.25V131.25C12.5 138.125 18.125 143.75 25 143.75H125C131.875 143.75 137.5 138.125 137.5 131.25V31.25C137.5 24.375 131.875 18.75 125 18.75ZM125 31.25V50H25V31.25H125ZM25 62.5V131.25H125V62.5H25Z" fill="#E91E63" fill-opacity="0.54"/>
<path opacity="0.5" d="M25 31.3125H125V50H25V31.3125Z" fill="#E91E63" fill-opacity="0.54"/>
<path d="M60.5377 111H53.0137L40.4297 91.948V111H32.9057V80.112H40.4297L53.0137 99.252V80.112H60.5377V111ZM77.1677 111.352C74.7623 111.352 72.5917 110.839 70.6557 109.812C68.749 108.785 67.2383 107.319 66.1237 105.412C65.0383 103.505 64.4957 101.276 64.4957 98.724C64.4957 96.2013 65.053 93.9867 66.1677 92.08C67.2823 90.144 68.8077 88.6627 70.7437 87.636C72.6797 86.6093 74.8503 86.096 77.2557 86.096C79.661 86.096 81.8317 86.6093 83.7677 87.636C85.7037 88.6627 87.229 90.144 88.3437 92.08C89.4583 93.9867 90.0157 96.2013 90.0157 98.724C90.0157 101.247 89.4437 103.476 88.2997 105.412C87.185 107.319 85.645 108.785 83.6797 109.812C81.7437 110.839 79.573 111.352 77.1677 111.352ZM77.1677 104.84C78.605 104.84 79.8223 104.312 80.8197 103.256C81.8463 102.2 82.3597 100.689 82.3597 98.724C82.3597 96.7587 81.861 95.248 80.8637 94.192C79.8957 93.136 78.693 92.608 77.2557 92.608C75.789 92.608 74.5717 93.136 73.6037 94.192C72.6357 95.2187 72.1517 96.7293 72.1517 98.724C72.1517 100.689 72.621 102.2 73.5597 103.256C74.5277 104.312 75.7303 104.84 77.1677 104.84ZM105.051 103.96L110.375 86.448H118.383L109.671 111H100.387L91.6753 86.448H99.7273L105.051 103.96Z" fill="#E91E63" fill-opacity="0.54"/>
</svg>
