<svg width="150" height="150" viewBox="0 0 150 150" fill="none" xmlns="http://www.w3.org/2000/svg">
<path fill-rule="evenodd" clip-rule="evenodd" d="M125 18.75H118.75V6.25H106.25V18.75H43.75V6.25H31.25V18.75H25C18.125 18.75 12.5 24.375 12.5 31.25V131.25C12.5 138.125 18.125 143.75 25 143.75H125C131.875 143.75 137.5 138.125 137.5 131.25V31.25C137.5 24.375 131.875 18.75 125 18.75ZM125 31.25V50H25V31.25H125ZM25 62.5V131.25H125V62.5H25Z" fill="#1DE9B6" fill-opacity="0.54"/>
<path opacity="0.5" d="M25 31.3125H125V50H25V31.3125Z" fill="#1DE9B6" fill-opacity="0.54"/>
<path d="M51.7833 111.308C48.8793 111.308 46.2099 110.633 43.7753 109.284C41.3699 107.935 39.4486 106.057 38.0113 103.652C36.6033 101.217 35.8993 98.4893 35.8993 95.468C35.8993 92.4467 36.6033 89.7333 38.0113 87.328C39.4486 84.9227 41.3699 83.0453 43.7753 81.696C46.2099 80.3467 48.8793 79.672 51.7833 79.672C54.6873 79.672 57.3419 80.3467 59.7473 81.696C62.1819 83.0453 64.0886 84.9227 65.4673 87.328C66.8753 89.7333 67.5793 92.4467 67.5793 95.468C67.5793 98.4893 66.8753 101.217 65.4673 103.652C64.0593 106.057 62.1526 107.935 59.7473 109.284C57.3419 110.633 54.6873 111.308 51.7833 111.308ZM51.7833 104.444C54.2473 104.444 56.2126 103.623 57.6793 101.98C59.1753 100.337 59.9233 98.1667 59.9233 95.468C59.9233 92.74 59.1753 90.5693 57.6793 88.956C56.2126 87.3133 54.2473 86.492 51.7833 86.492C49.2899 86.492 47.2953 87.2987 45.7993 88.912C44.3326 90.5253 43.5993 92.7107 43.5993 95.468C43.5993 98.196 44.3326 100.381 45.7993 102.024C47.2953 103.637 49.2899 104.444 51.7833 104.444ZM70.2691 98.724C70.2691 96.172 70.7824 93.9427 71.8091 92.036C72.8651 90.1293 74.3171 88.6627 76.1651 87.636C78.0424 86.6093 80.1838 86.096 82.5891 86.096C85.6691 86.096 88.2358 86.9027 90.2891 88.516C92.3718 90.1293 93.7358 92.4027 94.3811 95.336H86.3731C85.6984 93.4587 84.3931 92.52 82.4571 92.52C81.0784 92.52 79.9784 93.0627 79.1571 94.148C78.3358 95.204 77.9251 96.7293 77.9251 98.724C77.9251 100.719 78.3358 102.259 79.1571 103.344C79.9784 104.4 81.0784 104.928 82.4571 104.928C84.3931 104.928 85.6984 103.989 86.3731 102.112H94.3811C93.7358 104.987 92.3718 107.245 90.2891 108.888C88.2064 110.531 85.6398 111.352 82.5891 111.352C80.1838 111.352 78.0424 110.839 76.1651 109.812C74.3171 108.785 72.8651 107.319 71.8091 105.412C70.7824 103.505 70.2691 101.276 70.2691 98.724ZM112.09 104.62V111H108.262C105.534 111 103.407 110.34 101.882 109.02C100.356 107.671 99.5937 105.485 99.5937 102.464V92.696H96.6017V86.448H99.5937V80.464H107.118V86.448H112.046V92.696H107.118V102.552C107.118 103.285 107.294 103.813 107.646 104.136C107.998 104.459 108.584 104.62 109.406 104.62H112.09Z" fill="#1DE9B6" fill-opacity="0.54"/>
</svg>
