<svg width="150" height="150" viewBox="0 0 150 150" fill="none" xmlns="http://www.w3.org/2000/svg">
<path opacity="0.5" d="M37.5 25H100V37.5H37.5V25Z" fill="#AA00FF" fill-opacity="0.54"/>
<path fill-rule="evenodd" clip-rule="evenodd" d="M31.25 12.5H106.25C109.688 12.5 112.5 15.3125 112.5 18.75V25H131.25V75H81.25V131.25C81.25 134.688 78.4375 137.5 75 137.5H62.5C59.0625 137.5 56.25 134.688 56.25 131.25V62.5H118.75V37.5H112.5V43.75C112.5 47.1875 109.688 50 106.25 50H31.25C27.8125 50 25 47.1875 25 43.75V18.75C25 15.3125 27.8125 12.5 31.25 12.5ZM37.5 37.5H100V25H37.5V37.5Z" fill="#AA00FF" fill-opacity="0.54"/>
</svg>
