<svg width="150" height="150" viewBox="0 0 150 150" fill="none" xmlns="http://www.w3.org/2000/svg">
<path opacity="0.3" d="M50.0244 31.2743H100.024V50.0243H50.0244V31.2743Z" fill="#0066FF" fill-opacity="0.54"/>
<path d="M112.488 78.125C115.94 78.125 118.738 75.3268 118.738 71.875C118.738 68.4232 115.94 65.625 112.488 65.625C109.036 65.625 106.238 68.4232 106.238 71.875C106.238 75.3268 109.036 78.125 112.488 78.125Z" fill="#0066FF" fill-opacity="0.54"/>
<path d="M118.738 50H112.488V18.75H37.4878V50H31.2378C20.8628 50 12.4878 58.375 12.4878 68.75V106.25H37.4878V131.25H112.488V106.25H137.488V68.75C137.488 58.375 129.113 50 118.738 50ZM49.9878 31.25H99.9877V50H49.9878V31.25ZM99.9877 118.75H49.9878V93.75H99.9877V118.75ZM124.988 93.75H112.488V81.25H37.4878V93.75H24.9878V68.75C24.9878 65.3125 27.8003 62.5 31.2378 62.5H118.738C122.175 62.5 124.988 65.3125 124.988 68.75V93.75Z" fill="#0066FF" fill-opacity="0.54"/>
<path opacity="0.3" d="M37.5122 81.2622H112.512V93.7621H125.012V68.7622C125.012 65.3247 122.2 62.5122 118.762 62.5122H31.2622C27.8247 62.5122 25.0122 65.3247 25.0122 68.7622V93.7621H37.5122V81.2622ZM112.512 65.6372C115.95 65.6372 118.762 68.4497 118.762 71.8872C118.762 75.3247 115.95 78.1372 112.512 78.1372C109.075 78.1372 106.262 75.3247 106.262 71.8872C106.262 68.4497 109.075 65.6372 112.512 65.6372Z" fill="#0066FF" fill-opacity="0.54"/>
</svg>
