<svg width="150" height="150" viewBox="0 0 150 150" fill="none" xmlns="http://www.w3.org/2000/svg">
<path opacity="0.5" d="M62.5 31.25H87.5V118.75H62.5V31.25Z" fill="#2979FF" fill-opacity="0.54"/>
<path fill-rule="evenodd" clip-rule="evenodd" d="M125 18.75V131.25H112.5V118.75H100V131.25H50V118.75H37.5V131.25H25V18.75H37.5V31.25H50V18.75H100V31.25H112.5V18.75H125ZM37.5 106.25H50V93.75H37.5V106.25ZM50 81.25H37.5V68.75H50V81.25ZM37.5 56.25H50V43.75H37.5V56.25ZM87.5 118.75H62.5V31.25H87.5V118.75ZM112.5 43.75H100V56.25H112.5V43.75ZM100 68.75H112.5V81.25H100V68.75ZM100 93.75V106.25H112.5V93.75H100Z" fill="#2979FF" fill-opacity="0.54"/>
</svg>
