<svg width="150" height="150" viewBox="0 0 150 150" fill="none" xmlns="http://www.w3.org/2000/svg">
<path opacity="0.3" d="M103.899 100.024H108.649L118.774 79.7743V50.0244H93.7743V75.0243H116.399L103.899 100.024ZM41.3993 100.024H46.1493L56.2743 79.7743V50.0244H31.2743V75.0243H53.8993L41.3993 100.024Z" fill="#00D42F" fill-opacity="0.54"/>
<path d="M116.375 112.5L131.25 82.75V37.5H81.25V87.5H96.125L83.625 112.5H116.375ZM93.75 75V50H118.75V79.75L108.625 100H103.875L116.375 75H93.75ZM21.125 112.5H53.875L68.75 82.75V37.5H18.75V87.5H33.625L21.125 112.5ZM31.25 75V50H56.25V79.75L46.125 100H41.375L53.875 75H31.25Z" fill="#00D42F" fill-opacity="0.54"/>
</svg>
