<svg width="150" height="150" viewBox="0 0 150 150" fill="none" xmlns="http://www.w3.org/2000/svg">
<path opacity="0.5" fill-rule="evenodd" clip-rule="evenodd" d="M25 81.25H125V125H25V81.25ZM34.375 103C34.375 111.625 41.375 118.625 50 118.625C58.625 118.625 65.625 111.625 65.625 103C65.625 94.3749 58.625 87.3749 50 87.3749C41.375 87.3749 34.375 94.3749 34.375 103Z" fill="#00B8D4" fill-opacity="0.54"/>
<path fill-rule="evenodd" clip-rule="evenodd" d="M12.5 125C12.5 131.875 18.0625 137.5 25 137.5H125C131.938 137.5 137.5 131.875 137.5 125V50C137.5 43.0625 131.938 37.5 125 37.5H51.875L103.5 16.625L99.25 6.25L20.25 38.4375C15.6875 40.1875 12.5 44.8125 12.5 50V125ZM25 50H125V68.75H112.5V56.25H100V68.75H25V50ZM125 81.25H25V125H125V81.25Z" fill="#00B8D4" fill-opacity="0.54"/>
<path d="M50 118.625C58.6294 118.625 65.625 111.629 65.625 103C65.625 94.3704 58.6294 87.3749 50 87.3749C41.3706 87.3749 34.375 94.3704 34.375 103C34.375 111.629 41.3706 118.625 50 118.625Z" fill="#00B8D4" fill-opacity="0.54"/>
</svg>
