<svg width="150" height="150" viewBox="0 0 150 150" fill="none" xmlns="http://www.w3.org/2000/svg">
<path opacity="0.5" fill-rule="evenodd" clip-rule="evenodd" d="M118.75 119.313H31.25V30.6875H118.75V119.313ZM112.5 43.75H37.5V56.25H112.5V43.75ZM37.5 68.75H112.5V81.25H37.5V68.75ZM112.5 93.75H37.5V106.25H112.5V93.75Z" fill="#304FFE" fill-opacity="0.54"/>
<path fill-rule="evenodd" clip-rule="evenodd" d="M112.5 12.5L121.875 21.875L131.25 12.5V137.5L121.875 128.125L112.5 137.5L103.125 128.125L93.75 137.5L84.375 128.125L75 137.5L65.625 128.125L56.25 137.5L46.875 128.125L37.5 137.5L28.125 128.125L18.75 137.5V12.5L28.125 21.875L37.5 12.5L46.875 21.875L56.25 12.5L65.625 21.875L75 12.5L84.375 21.875L93.75 12.5L103.125 21.875L112.5 12.5ZM31.25 30.6875V119.313H118.75V30.6875H31.25Z" fill="#304FFE" fill-opacity="0.54"/>
<path d="M37.5 93.75H112.5V106.25H37.5V93.75Z" fill="#304FFE" fill-opacity="0.54"/>
<path d="M37.5 68.75H112.5V81.25H37.5V68.75Z" fill="#304FFE" fill-opacity="0.54"/>
<path d="M37.5 43.75H112.5V56.25H37.5V43.75Z" fill="#304FFE" fill-opacity="0.54"/>
</svg>
