<svg width="150" height="150" viewBox="0 0 150 150" fill="none" xmlns="http://www.w3.org/2000/svg">
<path opacity="0.3" d="M75 87.5C64.6875 87.5 56.25 79.0625 56.25 68.75V31.25H93.75V68.75C93.75 79.0625 85.3125 87.5 75 87.5Z" fill="#1DE9B6" fill-opacity="0.54"/>
<path d="M118.75 31.25H106.25V18.75H43.75V31.25H31.25C24.375 31.25 18.75 36.875 18.75 43.75V50C18.75 65.9375 30.75 78.9375 46.1875 80.875C50.125 90.25 58.5625 97.3125 68.75 99.375V118.75H43.75V131.25H106.25V118.75H81.25V99.375C91.4375 97.3125 99.875 90.25 103.812 80.875C119.25 78.9375 131.25 65.9375 131.25 50V43.75C131.25 36.875 125.625 31.25 118.75 31.25ZM31.25 50V43.75H43.75V67.625C36.5 65 31.25 58.125 31.25 50ZM75 87.5C64.6875 87.5 56.25 79.0625 56.25 68.75V31.25H93.75V68.75C93.75 79.0625 85.3125 87.5 75 87.5ZM118.75 50C118.75 58.125 113.5 65 106.25 67.625V43.75H118.75V50Z" fill="#1DE9B6" fill-opacity="0.54"/>
</svg>
