<svg width="150" height="150" viewBox="0 0 150 150" fill="none" xmlns="http://www.w3.org/2000/svg">
<path d="M53.125 90.625L25 118.75L34.375 128.125L56.25 106.25H68.75L53.125 90.625ZM93.75 6.25C86.875 6.25 81.25 11.875 81.25 18.75C81.25 25.625 86.875 31.25 93.75 31.25C100.625 31.25 106.25 25.625 106.25 18.75C106.25 11.875 100.625 6.25 93.75 6.25ZM131.25 131.312L112.5 150L93.8125 131.188V121.875L49.4375 77.5625C47.5 77.875 45.625 78 43.75 78V64.5C54.125 64.6875 66.3125 59.0625 72.9375 51.75L81.6875 42.0625C82.875 40.75 84.375 39.6875 86 38.9375C87.8125 38.0625 89.875 37.5 92 37.5H92.1875C99.9375 37.5625 106.25 43.875 106.25 51.625V87.5625C106.25 92.8125 104.062 97.625 100.5 101.062L78.125 78.6875V64.5C74.1875 67.75 69.1875 70.875 63.8125 73.1875L103.125 112.5H112.5L131.25 131.312Z" fill="#FF2E00" fill-opacity="0.54"/>
</svg>
