<svg width="150" height="150" viewBox="0 0 150 150" fill="none" xmlns="http://www.w3.org/2000/svg">
<path d="M71.812 21.7501C71.812 28.6251 77.437 34.2501 84.312 34.2501C91.187 34.2501 96.812 28.6251 96.812 21.7501C96.812 14.8751 91.187 9.25006 84.312 9.25006C77.437 9.25006 71.812 14.8751 71.812 21.7501ZM68.062 93.6251L81.187 106.125V143.625H93.687V96.7501L80.562 84.2501L84.312 65.5001C92.437 74.8751 104.937 81.1251 118.687 81.1251V68.6251C106.812 68.6251 96.812 62.3751 91.812 53.6251L85.562 43.6251C83.062 39.8751 79.312 37.3751 74.937 37.3751C73.062 37.3751 71.812 38.0001 69.937 38.0001L37.437 51.7501V81.1251H49.937V59.8751L61.187 55.5001L51.187 106.125L20.562 99.8751L18.062 112.375L61.812 121.125L68.062 93.6251Z" fill="#8F00FF" fill-opacity="0.54"/>
</svg>
