<svg width="150" height="150" viewBox="0 0 150 150" fill="none" xmlns="http://www.w3.org/2000/svg">
<path opacity="0.3" d="M62.5 50C48.6875 50 37.5 61.1875 37.5 75V125H87.5V75C87.5 61.1875 76.3125 50 62.5 50ZM81.25 100H68.75V112.5H56.25V100H43.75V87.5H56.25V75H68.75V87.5H81.25V100Z" fill="#8F00FF" fill-opacity="0.54"/>
<path d="M96.875 40.625C96.875 35.375 106.25 25 106.25 25C106.25 25 115.625 35.375 115.625 40.625C115.625 45.8125 111.438 50 106.25 50C101.062 50 96.875 45.8125 96.875 40.625ZM121.875 93.75C130.5 93.75 137.5 86.75 137.5 78.125C137.5 67.6875 121.875 50 121.875 50C121.875 50 106.25 67.6875 106.25 78.125C106.25 86.75 113.25 93.75 121.875 93.75ZM81.25 87.5H68.75V75H56.25V87.5H43.75V100H56.25V112.5H68.75V100H81.25V87.5ZM100 75V125C100 131.875 94.375 137.5 87.5 137.5H37.5C30.625 137.5 25 131.875 25 125V75C25 56.4375 38.5 41.0625 56.25 38.0625V25H43.75V12.5H81.25C88.3125 12.5 94.6875 14.9375 99.9375 18.8125L91 27.75C88.125 26.0625 84.8125 25 81.25 25H68.75V38.0625C86.5 41.0625 100 56.4375 100 75ZM87.5 75C87.5 61.1875 76.3125 50 62.5 50C48.6875 50 37.5 61.1875 37.5 75V125H87.5V75Z" fill="#8F00FF" fill-opacity="0.54"/>
</svg>
