<svg width="150" height="150" viewBox="0 0 150 150" fill="none" xmlns="http://www.w3.org/2000/svg">
<path opacity="0.3" d="M43.7498 76.6875V99.9375L74.9998 117L106.25 99.9375V76.6875L74.9998 93.75L43.7498 76.6875ZM32.3748 56.25L74.9998 79.5L117.625 56.25L74.9998 33L32.3748 56.25Z" fill="#3D5AFE" fill-opacity="0.54"/>
<path d="M75 18.75L6.25 56.25L31.25 69.875V107.375L75 131.25L118.75 107.375V69.875L131.25 63.0625V106.25H143.75V56.25L75 18.75ZM106.25 99.9375L75 117L43.75 99.9375V76.6875L75 93.75L106.25 76.6875V99.9375ZM75 79.5L32.375 56.25L75 33L117.625 56.25L75 79.5Z" fill="#3D5AFE" fill-opacity="0.54"/>
</svg>
