<svg width="150" height="150" viewBox="0 0 150 150" fill="none" xmlns="http://www.w3.org/2000/svg">
<path fill-rule="evenodd" clip-rule="evenodd" d="M125 18.75H118.75V6.25H106.25V18.75H43.75V6.25H31.25V18.75H25C18.125 18.75 12.5 24.375 12.5 31.25V131.25C12.5 138.125 18.125 143.75 25 143.75H125C131.875 143.75 137.5 138.125 137.5 131.25V31.25C137.5 24.375 131.875 18.75 125 18.75ZM125 31.25V50H25V31.25H125ZM25 62.5V131.25H125V62.5H25Z" fill="#8F00FF" fill-opacity="0.54"/>
<path opacity="0.5" d="M25 31.3125H125V50H25V31.3125Z" fill="#8F00FF" fill-opacity="0.54"/>
<path d="M42.4963 110.266C40.5456 110.266 38.7976 109.949 37.2523 109.316C35.7069 108.683 34.4656 107.745 33.5283 106.504C32.6163 105.263 32.1349 103.768 32.0843 102.02H39.0003C39.1016 103.008 39.4436 103.768 40.0263 104.3C40.6089 104.807 41.3689 105.06 42.3063 105.06C43.2689 105.06 44.0289 104.845 44.5863 104.414C45.1436 103.958 45.4223 103.337 45.4223 102.552C45.4223 101.893 45.1943 101.349 44.7383 100.918C44.3076 100.487 43.7629 100.133 43.1043 99.854C42.4709 99.5753 41.5589 99.2587 40.3683 98.904C38.6456 98.372 37.2396 97.84 36.1503 97.308C35.0609 96.776 34.1236 95.9907 33.3383 94.952C32.5529 93.9133 32.1603 92.558 32.1603 90.886C32.1603 88.4033 33.0596 86.4653 34.8583 85.072C36.6569 83.6533 39.0003 82.944 41.8883 82.944C44.8269 82.944 47.1956 83.6533 48.9943 85.072C50.7929 86.4653 51.7556 88.416 51.8823 90.924H44.8523C44.8016 90.0627 44.4849 89.3913 43.9023 88.91C43.3196 88.4033 42.5723 88.15 41.6603 88.15C40.8749 88.15 40.2416 88.3653 39.7603 88.796C39.2789 89.2013 39.0383 89.7967 39.0383 90.582C39.0383 91.4433 39.4436 92.1147 40.2543 92.596C41.0649 93.0773 42.3316 93.5967 44.0543 94.154C45.7769 94.7367 47.1703 95.294 48.2343 95.826C49.3236 96.358 50.2609 97.1307 51.0463 98.144C51.8316 99.1573 52.2243 100.462 52.2243 102.058C52.2243 103.578 51.8316 104.959 51.0463 106.2C50.2863 107.441 49.1716 108.429 47.7023 109.164C46.2329 109.899 44.4976 110.266 42.4963 110.266ZM76.2112 99.056C76.2112 99.664 76.1732 100.297 76.0972 100.956H61.3912C61.4925 102.273 61.9105 103.287 62.6452 103.996C63.4052 104.68 64.3299 105.022 65.4192 105.022C67.0405 105.022 68.1679 104.338 68.8012 102.97H75.7172C75.3625 104.363 74.7165 105.617 73.7792 106.732C72.8672 107.847 71.7145 108.721 70.3212 109.354C68.9279 109.987 67.3699 110.304 65.6472 110.304C63.5699 110.304 61.7205 109.861 60.0992 108.974C58.4779 108.087 57.2112 106.821 56.2992 105.174C55.3872 103.527 54.9312 101.602 54.9312 99.398C54.9312 97.194 55.3745 95.2687 56.2612 93.622C57.1732 91.9753 58.4399 90.7087 60.0612 89.822C61.6825 88.9353 63.5445 88.492 65.6472 88.492C67.6992 88.492 69.5232 88.9227 71.1192 89.784C72.7152 90.6453 73.9565 91.874 74.8432 93.47C75.7552 95.066 76.2112 96.928 76.2112 99.056ZM69.5612 97.346C69.5612 96.2313 69.1812 95.3447 68.4212 94.686C67.6612 94.0273 66.7112 93.698 65.5712 93.698C64.4819 93.698 63.5572 94.0147 62.7972 94.648C62.0625 95.2813 61.6065 96.1807 61.4292 97.346H69.5612ZM86.1372 91.798C86.7705 90.81 87.6445 90.012 88.7592 89.404C89.8739 88.796 91.1785 88.492 92.6732 88.492C94.4212 88.492 96.0045 88.9353 97.4232 89.822C98.8419 90.7087 99.9565 91.9753 100.767 93.622C101.603 95.2687 102.021 97.1813 102.021 99.36C102.021 101.539 101.603 103.464 100.767 105.136C99.9565 106.783 98.8419 108.062 97.4232 108.974C96.0045 109.861 94.4212 110.304 92.6732 110.304C91.2039 110.304 89.8992 110 88.7592 109.392C87.6445 108.784 86.7705 107.999 86.1372 107.036V120.108H79.6392V88.796H86.1372V91.798ZM95.4092 99.36C95.4092 97.7387 94.9532 96.472 94.0412 95.56C93.1545 94.6227 92.0525 94.154 90.7352 94.154C89.4432 94.154 88.3412 94.6227 87.4292 95.56C86.5425 96.4973 86.0992 97.7767 86.0992 99.398C86.0992 101.019 86.5425 102.299 87.4292 103.236C88.3412 104.173 89.4432 104.642 90.7352 104.642C92.0272 104.642 93.1292 104.173 94.0412 103.236C94.9532 102.273 95.4092 100.981 95.4092 99.36ZM117.248 104.49V110H113.942C111.586 110 109.75 109.43 108.432 108.29C107.115 107.125 106.456 105.237 106.456 102.628V94.192H103.872V88.796H106.456V83.628H112.954V88.796H117.21V94.192H112.954V102.704C112.954 103.337 113.106 103.793 113.41 104.072C113.714 104.351 114.221 104.49 114.93 104.49H117.248Z" fill="#8F00FF" fill-opacity="0.54"/>
</svg>
