<svg width="150" height="150" viewBox="0 0 150 150" fill="none" xmlns="http://www.w3.org/2000/svg">
<path opacity="0.5" d="M97.1875 68.75L114.437 37.5H38.5L53.3125 68.75H97.1875Z" fill="#00C853" fill-opacity="0.54"/>
<path fill-rule="evenodd" clip-rule="evenodd" d="M108.125 74.8125C106 78.6875 101.875 81.25 97.1875 81.25H50.625L43.75 93.75H118.75V106.25H43.75C34.25 106.25 28.25 96.0625 32.8125 87.6875L41.25 72.4375L18.75 25H6.25V12.5H26.6875L32.5625 25H125.062C129.812 25 132.812 30.125 130.5 34.25L108.125 74.8125ZM114.437 37.5H38.5L53.3125 68.75H97.1875L114.437 37.5Z" fill="#00C853" fill-opacity="0.54"/>
<path d="M43.75 112.5C36.875 112.5 31.3125 118.125 31.3125 125C31.3125 131.875 36.875 137.5 43.75 137.5C50.625 137.5 56.25 131.875 56.25 125C56.25 118.125 50.625 112.5 43.75 112.5Z" fill="#00C853" fill-opacity="0.54"/>
<path d="M106.25 112.5C99.375 112.5 93.8125 118.125 93.8125 125C93.8125 131.875 99.375 137.5 106.25 137.5C113.125 137.5 118.75 131.875 118.75 125C118.75 118.125 113.125 112.5 106.25 112.5Z" fill="#00C853" fill-opacity="0.54"/>
</svg>
