<svg width="150" height="150" viewBox="0 0 150 150" fill="none" xmlns="http://www.w3.org/2000/svg">
<path d="M45.7498 66L52.3748 59.375L45.7498 52.75L52.3748 46.125L65.6248 59.375L52.3748 72.625L45.7498 66ZM28.1248 56.25C28.3123 56.25 28.4373 56.3125 28.6248 56.3125C36.0623 37.9375 53.9998 25 74.9998 25C88.6873 25 101 30.5 110.062 39.375C111 35.625 112.875 31.3125 115.125 27.125C104.25 18 90.2498 12.5 74.9373 12.5C44.4373 12.5 19.0623 34.4375 13.6248 63.375C17.1248 59 22.4373 56.25 28.1248 56.25ZM131.25 65.625C128.625 65.625 126.125 65.0625 123.812 64.25C124.562 67.6875 125 71.3125 125 75C125 102.625 102.625 125 74.9998 125C53.9998 125 36.0623 112.062 28.6248 93.6875C28.4373 93.6875 28.3123 93.75 28.1248 93.75C24.8748 93.75 21.6248 92.875 18.7498 91.25C16.7498 90.125 15.0623 88.625 13.6248 86.875C19.1873 115.688 44.4373 137.5 74.8748 137.5C109.5 137.5 137.5 109.5 137.5 75C137.5 71.5625 137.125 68.1875 136.625 64.875C134.875 65.3125 133.125 65.625 131.25 65.625ZM131.25 18.75C131.25 18.75 118.75 36.875 118.75 43.75C118.75 50.625 124.375 56.25 131.25 56.25C138.125 56.25 143.75 50.625 143.75 43.75C143.75 36.875 131.25 18.75 131.25 18.75ZM97.6248 46.125L84.3748 59.375L97.6248 72.625L104.25 66L97.6248 59.375L104.25 52.75L97.6248 46.125ZM53.4998 106.25C57.8123 98.8125 65.8123 93.75 74.9998 93.75C84.1873 93.75 92.1872 98.8125 96.4997 106.25H107C102 93.4375 89.5623 84.375 74.9998 84.375C69.5623 84.375 64.3748 85.625 59.8123 87.9375L37.4373 75C37.4373 71.75 35.8123 68.625 32.8123 66.9375C28.3123 64.375 22.6248 65.875 19.9998 70.375C17.4373 74.875 18.9373 80.5625 23.4373 83.1875C26.4373 84.9375 29.9998 84.75 32.7498 83.1875L51.3123 93.9375C47.7498 97.25 44.8748 101.5 42.9998 106.25H53.4998Z" fill="#52FF00" fill-opacity="0.54"/>
</svg>
