<svg width="150" height="150" viewBox="0 0 150 150" fill="none" xmlns="http://www.w3.org/2000/svg">
<path d="M37.5 37.5C44.375 37.5 50 31.875 50 25C50 18.125 44.375 12.5 37.5 12.5C30.625 12.5 25 18.125 25 25C25 31.875 30.625 37.5 37.5 37.5ZM62.5 58.9375C62.5 53.875 59.5 49.375 54.875 47.375C49.5625 45.0625 43.6875 43.75 37.5 43.75C31.3125 43.75 25.4375 45.0625 20.125 47.375C15.5 49.375 12.5 53.875 12.5 58.9375V62.5H62.5V58.9375ZM112.5 37.5C119.375 37.5 125 31.875 125 25C125 18.125 119.375 12.5 112.5 12.5C105.625 12.5 100 18.125 100 25C100 31.875 105.625 37.5 112.5 37.5ZM137.5 58.9375C137.5 53.875 134.5 49.375 129.875 47.375C124.563 45.0625 118.688 43.75 112.5 43.75C106.312 43.75 100.438 45.0625 95.125 47.375C90.5 49.375 87.5 53.875 87.5 58.9375V62.5H137.5V58.9375ZM118.75 106.25V93.6875L31.25 93.75V106.25L12.5 87.5L31.25 68.75V81.3125L118.75 81.25V68.75L137.5 87.5L118.75 106.25ZM62.5 118.75V112.5H46.875C45.125 112.5 43.75 113.875 43.75 115.625V134.375C43.75 136.125 45.125 137.5 46.875 137.5H59.375C61.125 137.5 62.5 136.125 62.5 134.375V125C62.5 123.25 61.125 121.875 59.375 121.875H50V118.75H62.5ZM56.25 128.125V131.25H50V128.125H56.25ZM109.375 118.75H103.125V137.5H96.875V118.75H90.625V112.5H109.375V118.75ZM78.125 118.75V121.875H84.375V128.125H78.125V137.5H71.875V112.5H87.5V118.75H78.125Z" fill="#FF2E00" fill-opacity="0.54"/>
</svg>
