<svg width="150" height="150" viewBox="0 0 150 150" fill="none" xmlns="http://www.w3.org/2000/svg">
<path opacity="0.3" d="M131.238 68.75C127.8 68.75 124.988 71.5625 124.988 75V100H24.9878V75C24.9878 71.5625 22.1753 68.75 18.7378 68.75C15.3003 68.75 12.4878 71.5625 12.4878 75V106.25C12.4878 109.688 15.3003 112.5 18.7378 112.5H131.238C134.675 112.5 137.488 109.688 137.488 106.25V75C137.488 71.5625 134.675 68.75 131.238 68.75ZM37.4878 87.5H112.488V75C112.488 69.5 114.925 64.5625 118.738 61.125V43.75C118.738 40.3125 115.925 37.5 112.488 37.5H37.4878C34.0503 37.5 31.2378 40.3125 31.2378 43.75V61.125C35.0503 64.5625 37.4878 69.5 37.4878 75V87.5Z" fill="#FF00E5" fill-opacity="0.54"/>
<path d="M131.25 56.2622V43.7622C131.25 33.4497 122.812 25.0122 112.5 25.0122H37.5C27.1875 25.0122 18.75 33.4497 18.75 43.7622V56.2622C8.4375 56.2622 0 64.6997 0 75.0123V106.262C0 116.575 8.4375 125.012 18.75 125.012H131.25C141.562 125.012 150 116.575 150 106.262V75.0123C150 64.6997 141.562 56.2622 131.25 56.2622ZM31.25 43.7622C31.25 40.3247 34.0625 37.5122 37.5 37.5122H112.5C115.938 37.5122 118.75 40.3247 118.75 43.7622V61.1372C114.938 64.5747 112.5 69.5123 112.5 75.0123V87.5123H37.5V75.0123C37.5 69.5123 35.0625 64.5747 31.25 61.1372V43.7622ZM137.5 106.262C137.5 109.7 134.688 112.512 131.25 112.512H18.75C15.3125 112.512 12.5 109.7 12.5 106.262V75.0123C12.5 71.5748 15.3125 68.7623 18.75 68.7623C22.1875 68.7623 25 71.5748 25 75.0123V100.012H125V75.0123C125 71.5748 127.812 68.7623 131.25 68.7623C134.688 68.7623 137.5 71.5748 137.5 75.0123V106.262Z" fill="#FF00E5" fill-opacity="0.54"/>
</svg>
