<svg width="150" height="150" viewBox="0 0 150 150" fill="none" xmlns="http://www.w3.org/2000/svg">
<path opacity="0.3" d="M137.5 131.25C130.562 131.25 126.688 128.938 123.875 127.25C121.562 125.875 120.125 125 116.688 125C113.188 125 111.812 125.813 109.5 127.25C106.625 128.938 102.812 131.25 95.875 131.25C88.9375 131.25 85.0625 128.938 82.25 127.25C79.9375 125.875 78.5 125 75.0625 125C71.5625 125 70.1875 125.813 67.875 127.25C65 128.938 61.125 131.25 54.1875 131.25C47.25 131.25 43.375 128.938 40.5625 127.25C38.25 125.813 36.8125 125 33.375 125C29.9375 125 28.5 125.813 26.1875 127.25C23.3125 128.938 19.4375 131.25 12.5 131.25V118.75C16 118.75 17.375 117.938 19.6875 116.5C22.5625 114.813 26.4375 112.5 33.375 112.5C40.3125 112.5 44.1875 114.813 47 116.5C49.3125 117.938 50.6875 118.75 54.1875 118.75C57.6875 118.75 59.0625 117.938 61.375 116.5C64.25 114.813 68.125 112.5 75.0625 112.5C82 112.5 85.875 114.813 88.6875 116.5C91 117.875 92.4375 118.75 95.875 118.75C99.3125 118.75 100.75 117.938 103.062 116.5C105.875 114.813 109.75 112.5 116.688 112.5C123.625 112.5 127.5 114.813 130.312 116.5C132.625 117.938 134 118.75 137.5 118.75V131.25ZM137.5 103.125C130.562 103.125 126.688 100.813 123.875 99.125C121.562 97.75 120.125 96.875 116.688 96.875C113.188 96.875 111.812 97.6875 109.5 99.125C106.688 100.813 102.812 103.125 95.875 103.125C88.9375 103.125 85.0625 100.813 82.25 99.125C79.9375 97.75 78.5 96.875 75.0625 96.875C71.5625 96.875 70.1875 97.6875 67.875 99.125C65.0625 100.813 61.1875 103.125 54.25 103.125C47.3125 103.125 43.4375 100.813 40.625 99.125C38.3125 97.75 36.875 96.875 33.4375 96.875C30 96.875 28.5625 97.6875 26.25 99.125C23.3125 100.813 19.4375 103.125 12.5 103.125V90.625C16 90.625 17.375 89.8125 19.6875 88.375C22.5 86.6875 26.375 84.375 33.3125 84.375C40.25 84.375 44.125 86.6875 46.9375 88.375C49.25 89.75 50.6875 90.625 54.125 90.625C57.625 90.625 59 89.8125 61.3125 88.375C64.125 86.6875 68 84.375 74.9375 84.375C81.875 84.375 85.75 86.6875 88.5625 88.375C90.875 89.75 92.3125 90.625 95.75 90.625C99.1875 90.625 100.625 89.8125 102.937 88.375C105.75 86.6875 109.625 84.375 116.562 84.375C123.5 84.375 127.375 86.6875 130.188 88.375C132.5 89.75 133.938 90.625 137.375 90.625V103.125H137.5ZM54.1875 75C57.6875 75 59.0625 74.1875 61.375 72.75C64.25 71.0625 68.125 68.75 75.0625 68.75C82 68.75 85.875 71.0625 88.6875 72.75C91 74.125 92.4375 75 95.875 75C99.3125 75 100.75 74.1875 103.062 72.75C103.812 72.3125 104.688 71.8125 105.625 71.3125L65.5 31.25C55.8125 21.5625 46.875 18.6875 31.25 18.75V34.375C42.625 34.3125 49.3125 36.8125 56.25 43.75L62.5 50L42.1875 70.3125C44.125 71.0625 45.6875 72 47 72.75C49.3125 74.1875 50.6875 75 54.1875 75Z" fill="#F57C00" fill-opacity="0.54"/>
<path opacity="0.3" d="M103.125 50C111.754 50 118.75 43.0044 118.75 34.375C118.75 25.7456 111.754 18.75 103.125 18.75C94.4956 18.75 87.5 25.7456 87.5 34.375C87.5 43.0044 94.4956 50 103.125 50Z" fill="#F57C00" fill-opacity="0.54"/>
<path d="M137.5 103.125H137.375H137.5ZM62.5 50L42.1875 70.3125C44.125 71.0625 45.6875 72 47 72.75C49.3125 74.1875 50.6875 75 54.1875 75C57.6875 75 59.0625 74.1875 61.375 72.75C64.25 71.0625 68.125 68.75 75.0625 68.75C82 68.75 85.875 71.0625 88.6875 72.75C91 74.125 92.4375 75 95.875 75C99.3125 75 100.75 74.1875 103.062 72.75C103.812 72.3125 104.688 71.8125 105.625 71.3125L65.5 31.25C55.8125 21.5625 46.875 18.6875 31.25 18.75V34.375C42.625 34.3125 49.3125 36.8125 56.25 43.75L62.5 50ZM33.4375 96.875C36.875 96.875 38.3125 97.75 40.625 99.125C43.4375 100.813 47.3125 103.125 54.25 103.125C61.1875 103.125 65.0625 100.813 67.875 99.125C70.1875 97.6875 71.5625 96.875 75.0625 96.875C78.5 96.875 79.9375 97.75 82.25 99.125C85.0625 100.813 88.9375 103.125 95.875 103.125C102.812 103.125 106.688 100.813 109.5 99.125C111.812 97.6875 113.188 96.875 116.688 96.875C120.125 96.875 121.562 97.75 123.875 99.125C126.688 100.813 130.5 103.063 137.375 103.125V90.625C133.938 90.625 132.5 89.75 130.188 88.375C127.375 86.6875 123.5 84.375 116.562 84.375C109.625 84.375 105.75 86.6875 102.937 88.375C100.625 89.8125 99.1875 90.625 95.75 90.625C92.3125 90.625 90.875 89.75 88.5625 88.375C85.75 86.6875 81.875 84.375 74.9375 84.375C68 84.375 64.125 86.6875 61.3125 88.375C59 89.8125 57.625 90.625 54.125 90.625C50.6875 90.625 49.25 89.75 46.9375 88.375C44.125 86.6875 40.25 84.375 33.3125 84.375C26.375 84.375 22.5 86.6875 19.6875 88.375C17.375 89.8125 16 90.625 12.5 90.625V103.125C19.4375 103.125 23.3125 100.813 26.25 99.125C28.5625 97.6875 30 96.875 33.4375 96.875ZM116.688 112.5C109.75 112.5 105.875 114.813 103.062 116.5C100.75 117.938 99.3125 118.75 95.875 118.75C92.4375 118.75 91 117.875 88.6875 116.5C85.875 114.813 82 112.5 75.0625 112.5C68.125 112.5 64.25 114.813 61.375 116.5C59.0625 117.938 57.6875 118.75 54.1875 118.75C50.6875 118.75 49.3125 117.938 47 116.5C44.1875 114.813 40.3125 112.5 33.375 112.5C26.4375 112.5 22.5625 114.813 19.6875 116.5C17.375 117.938 16 118.75 12.5 118.75V131.25C19.4375 131.25 23.3125 128.938 26.1875 127.25C28.5 125.813 29.9375 125 33.375 125C36.8125 125 38.25 125.813 40.5625 127.25C43.375 128.938 47.25 131.25 54.1875 131.25C61.125 131.25 65 128.938 67.875 127.25C70.1875 125.813 71.5625 125 75.0625 125C78.5 125 79.9375 125.875 82.25 127.25C85.0625 128.938 88.9375 131.25 95.875 131.25C102.812 131.25 106.625 128.938 109.5 127.25C111.812 125.813 113.188 125 116.688 125C120.125 125 121.562 125.875 123.875 127.25C126.688 128.938 130.562 131.25 137.5 131.25V118.75C134 118.75 132.625 117.938 130.312 116.5C127.5 114.813 123.625 112.5 116.688 112.5Z" fill="#F57C00" fill-opacity="0.54"/>
<path d="M103.125 50C111.754 50 118.75 43.0044 118.75 34.375C118.75 25.7456 111.754 18.75 103.125 18.75C94.4956 18.75 87.5 25.7456 87.5 34.375C87.5 43.0044 94.4956 50 103.125 50Z" fill="#F57C00" fill-opacity="0.54"/>
</svg>
