<svg width="150" height="150" viewBox="0 0 150 150" fill="none" xmlns="http://www.w3.org/2000/svg">
<path opacity="0.5" d="M18.75 18.75H31.25V31.25H18.75V18.75Z" fill="#00E676" fill-opacity="0.54"/>
<path opacity="0.5" d="M118.75 118.75H131.25V131.25H118.75V118.75Z" fill="#00E676" fill-opacity="0.54"/>
<path opacity="0.5" d="M118.75 18.75H131.25V31.25H118.75V18.75Z" fill="#00E676" fill-opacity="0.54"/>
<path opacity="0.5" d="M18.75 118.75H31.25V131.25H18.75V118.75Z" fill="#00E676" fill-opacity="0.54"/>
<path fill-rule="evenodd" clip-rule="evenodd" d="M49.3125 100L70.5625 43.75H79.3125L100.625 100H90.4375L85.8125 87.5H64L59.4375 100H49.3125ZM75 55.6875L66.8125 79.625H83.125L75 55.6875Z" fill="#00E676" fill-opacity="0.54"/>
<path fill-rule="evenodd" clip-rule="evenodd" d="M43.75 18.75H106.25V6.25H143.75V43.75H131.25V106.25H143.75V143.75H106.25V131.25H43.75V143.75H6.25V106.25H18.75V43.75H6.25V6.25H43.75V18.75ZM31.25 18.75H18.75V31.25H31.25V18.75ZM31.25 131.25H18.75V118.75H31.25V131.25ZM118.75 131.25H131.25V118.75H118.75V131.25ZM118.75 18.75H131.25V31.25H118.75V18.75ZM106.25 106.25H118.75V43.75H106.25V31.25H43.75V43.75H31.25V106.25H43.75V118.75H106.25V106.25Z" fill="#00E676" fill-opacity="0.54"/>
</svg>
