<svg width="150" height="150" viewBox="0 0 150 150" fill="none" xmlns="http://www.w3.org/2000/svg">
<path opacity="0.5" d="M74.5 51.75C76 43 73.5 33.6875 66.75 27C60.875 21.0625 53 18.3125 45.25 18.75L64.5625 38.0625L38.0625 64.5625L18.75 45.25C18.3125 53 21.0625 60.8125 26.9375 66.75C33.4375 73.25 42.375 75.8125 50.875 74.5625C55.3125 73.9375 59.625 72.1875 63.375 69.4375L122.5 128.563L128 123.063L68.9375 64C71.875 60.25 73.75 56.125 74.5 51.75Z" fill="#FF9100" fill-opacity="0.54"/>
<path fill-rule="evenodd" clip-rule="evenodd" d="M84.6249 61.875L141.312 118.563C143.812 121 143.812 125 141.312 127.375L126.937 141.75C124.5 144.188 120.562 144.188 118.125 141.75L61.1874 84.8125C46.6874 90.25 29.7499 87.1875 18.1249 75.5625C3.74994 61.1875 2.43744 38.8125 14.0624 22.9375L37.9999 46.875L46.8749 38L22.9374 14.0625C38.8749 2.43753 61.2499 3.75003 75.6249 18.125C87.4374 30 90.4374 47.25 84.6249 61.875ZM63.4375 69.4375L122.563 128.563L128.063 122.938L69 63.875C71.875 60.1875 73.75 56.0625 74.5 51.6875C76.0625 43 73.5 33.6875 66.75 26.9375C60.8125 21.0625 53 18.3125 45.25 18.75L64.5625 38.0625L38.0625 64.5625L18.75 45.25C18.3125 53 21.0625 60.875 27 66.75C33.5 73.25 42.4375 75.8125 50.9375 74.5625C55.375 73.9375 59.625 72.25 63.4375 69.4375Z" fill="#FF9100" fill-opacity="0.54"/>
</svg>
