<svg width="150" height="150" viewBox="0 0 150 150" fill="none" xmlns="http://www.w3.org/2000/svg">
<path opacity="0.5" d="M74.9999 25C53.0624 25 43.9999 28 40.1874 31.25H109.75C106 28 96.9374 25 74.9999 25Z" fill="#00838F" fill-opacity="0.54"/>
<path opacity="0.5" fill-rule="evenodd" clip-rule="evenodd" d="M37.5 96.875C37.5 102.062 41.6875 106.25 46.875 106.25H103.125C108.312 106.25 112.5 102.062 112.5 96.875V75H37.5V96.875ZM96.875 81.25C102.062 81.25 106.25 85.4375 106.25 90.625C106.25 95.8125 102.062 100 96.875 100C91.6875 100 87.5 95.8125 87.5 90.625C87.5 85.4375 91.6875 81.25 96.875 81.25ZM62.5 90.625C62.5 85.4375 58.3125 81.25 53.125 81.25C47.9375 81.25 43.75 85.4375 43.75 90.625C43.75 95.8125 47.9375 100 53.125 100C58.3125 100 62.5 95.8125 62.5 90.625Z" fill="#00838F" fill-opacity="0.54"/>
<path d="M53.125 100C58.3027 100 62.5 95.8027 62.5 90.625C62.5 85.4473 58.3027 81.25 53.125 81.25C47.9473 81.25 43.75 85.4473 43.75 90.625C43.75 95.8027 47.9473 100 53.125 100Z" fill="#00838F" fill-opacity="0.54"/>
<path d="M96.875 100C102.053 100 106.25 95.8027 106.25 90.625C106.25 85.4473 102.053 81.25 96.875 81.25C91.6973 81.25 87.5 85.4473 87.5 90.625C87.5 95.8027 91.6973 100 96.875 100Z" fill="#00838F" fill-opacity="0.54"/>
<path fill-rule="evenodd" clip-rule="evenodd" d="M75 12.5C50 12.5 25 15.625 25 37.5V96.875C25 108.938 34.8125 118.75 46.875 118.75L37.5 128.125V131.25H50L62.5 118.75H87.5L100 131.25H112.5V128.125L103.125 118.75C115.188 118.75 125 108.938 125 96.875V37.5C125 15.625 100 12.5 75 12.5ZM75 25C96.9375 25 106 28 109.812 31.25H40.1875C44 28 53.0625 25 75 25ZM68.75 43.75H37.5V62.5H68.75V43.75ZM112.5 96.875C112.5 102.062 108.312 106.25 103.125 106.25H46.875C41.6875 106.25 37.5 102.062 37.5 96.875V75H112.5V96.875ZM81.25 62.5H112.5V43.75H81.25V62.5Z" fill="#00838F" fill-opacity="0.54"/>
</svg>
