<svg width="150" height="150" viewBox="0 0 150 150" fill="none" xmlns="http://www.w3.org/2000/svg">
<path d="M84.375 34.375C91.25 34.375 96.875 28.75 96.875 21.875C96.875 15 91.25 9.375 84.375 9.375C77.5 9.375 71.875 15 71.875 21.875C71.875 28.75 77.5 34.375 84.375 34.375ZM61.25 55.625L43.75 143.75H56.875L68.125 93.75L81.25 106.25V143.75H93.75V96.875L80.625 84.375L84.375 65.625C92.5 75 105 81.25 118.75 81.25V68.75C106.875 68.75 96.875 62.5 91.875 53.75L85.625 43.75C82.125 38.1875 75.125 35.9375 69.0625 38.5L37.5 51.875V81.25H50V60L61.25 55.625Z" fill="#E91E63" fill-opacity="0.54"/>
</svg>
