<svg width="150" height="150" viewBox="0 0 150 150" fill="none" xmlns="http://www.w3.org/2000/svg">
<path opacity="0.3" d="M57.75 59.375H46.375C49.625 53.8125 55.5625 50 62.5 50C72.625 50 80.875 58.0625 81.1875 68.125L57.75 59.375ZM31.25 125V81.25H18.75V125H31.25ZM124.375 116.062C123.375 114 121.188 112.562 118.75 112.562H85.3125C81.9375 112.562 78.625 112 75.4375 110.938L60.5625 106L64.5 94.125L79.375 99.0625C81.3125 99.6875 93.75 100 93.75 100C93.75 97.6875 92.3125 95.625 90.1875 94.8125L53.8125 81.25H43.75V115.5L87.3125 127.562L124.375 116.062Z" fill="#E91E63" fill-opacity="0.54"/>
<path d="M106.188 31.25L110.125 39.8125L118.688 43.75L110.125 47.6875L106.188 56.25L102.25 47.6875L93.6875 43.75L102.25 39.8125L106.188 31.25ZM125 87.5C131.875 87.5 137.5 81.875 137.5 75C137.5 68.125 125 50 125 50C125 50 112.5 68.125 112.5 75C112.5 81.875 118.125 87.5 125 87.5ZM68.75 38.125V25H81.25C84.8125 25 88.125 26.0625 90.9375 27.8125L99.875 18.875C94.6875 14.9375 88.3125 12.5 81.25 12.5C72.0625 12.5 47.25 12.5 46.875 12.5V25H56.25V38.1875C45.125 40.5 36.25 48.6875 32.8125 59.375H46.3125C49.625 53.8125 55.5625 50 62.5 50C72.625 50 80.875 58.0625 81.1875 68.125L93.75 72.8125V68.75C93.75 53.625 83 41 68.75 38.125ZM137.5 118.75V125L87.5 140.625L43.75 128.5V137.5H6.25V68.75H56.0625L94.5625 83.125C101.562 85.75 106.25 92.5 106.25 100H118.75C129.125 100 137.5 108.375 137.5 118.75ZM31.25 125V81.25H18.75V125H31.25ZM124.375 116.062C123.375 114 121.188 112.562 118.75 112.562H85.3125C81.9375 112.562 78.625 112 75.4375 110.938L60.5625 106L64.5 94.125L79.375 99.0625C81.3125 99.6875 93.75 100 93.75 100C93.75 97.6875 92.3125 95.625 90.1875 94.8125L53.8125 81.25H43.75V115.5L87.3125 127.562L124.375 116.062Z" fill="#E91E63" fill-opacity="0.54"/>
</svg>
