<svg width="150" height="150" viewBox="0 0 150 150" fill="none" xmlns="http://www.w3.org/2000/svg">
<path opacity="0.3" d="M31.7622 50.0185H50.1997C52.1997 42.206 55.0747 34.706 58.8247 27.7685C47.3247 31.706 37.7622 39.6435 31.7622 50.0185ZM46.8872 75.0185C46.8872 70.7685 47.2622 66.6435 47.7622 62.5185H26.6372C25.6372 66.5185 25.0122 70.706 25.0122 75.0185C25.0122 79.331 25.6372 83.5185 26.6372 87.5184H47.7622C47.2622 83.3935 46.8872 79.2685 46.8872 75.0185ZM31.7622 100.018C37.7622 110.393 47.3247 118.331 58.8247 122.268C55.0747 115.331 52.1997 107.831 50.1997 100.018H31.7622ZM75.0122 25.2685C69.8247 32.7685 65.7622 41.081 63.0747 50.0185H86.9497C84.2622 41.081 80.1997 32.7685 75.0122 25.2685ZM118.262 50.0185C112.262 39.706 102.7 31.706 91.1997 27.7685C94.9497 34.706 97.8247 42.206 99.8247 50.0185H118.262ZM75.0122 124.768C80.1997 117.268 84.2622 108.956 86.9497 100.018H63.0747C65.7622 108.956 69.8247 117.268 75.0122 124.768ZM91.1997 122.268C102.7 118.331 112.262 110.331 118.262 100.018H99.8247C97.8247 107.831 94.9497 115.331 91.1997 122.268ZM123.387 62.5185H102.262C102.762 66.6435 103.137 70.7685 103.137 75.0185C103.137 79.2685 102.762 83.3935 102.262 87.5184H123.387C124.387 83.5185 125.012 79.331 125.012 75.0185C125.012 70.706 124.387 66.5185 123.387 62.5185ZM60.3872 62.5185C59.8247 66.581 59.3872 70.7685 59.3872 75.0185C59.3872 79.2685 59.8247 83.3935 60.3872 87.5184H89.6372C90.1997 83.3935 90.6372 79.2685 90.6372 75.0185C90.6372 70.7685 90.1997 66.581 89.6372 62.5185H60.3872Z" fill="#00B0FF" fill-opacity="0.54"/>
<path d="M74.9253 12.5245C40.4253 12.5245 12.4878 40.5246 12.4878 75.0247C12.4878 109.525 40.4253 137.525 74.9253 137.525C109.488 137.525 137.488 109.525 137.488 75.0247C137.488 40.5246 109.488 12.5245 74.9253 12.5245ZM118.238 50.0246H99.8002C97.8002 42.2121 94.9252 34.712 91.1752 27.7745C102.675 31.712 112.238 39.7121 118.238 50.0246ZM74.9878 25.2745C80.1753 32.7745 84.2377 41.0871 86.9252 50.0246H63.0503C65.7378 41.0871 69.8003 32.7745 74.9878 25.2745ZM26.6128 87.5247C25.6128 83.5247 24.9878 79.3372 24.9878 75.0247C24.9878 70.7121 25.6128 66.5246 26.6128 62.5246H47.7378C47.2378 66.6496 46.8628 70.7746 46.8628 75.0247C46.8628 79.2747 47.2378 83.3997 47.7378 87.5247H26.6128ZM31.7378 100.025H50.1753C52.1753 107.837 55.0503 115.337 58.8003 122.275C47.3003 118.337 37.7378 110.4 31.7378 100.025ZM50.1753 50.0246H31.7378C37.7378 39.6496 47.3003 31.712 58.8003 27.7745C55.0503 34.712 52.1753 42.2121 50.1753 50.0246ZM74.9878 124.775C69.8003 117.275 65.7378 108.962 63.0503 100.025H86.9252C84.2377 108.962 80.1753 117.275 74.9878 124.775ZM89.6127 87.5247H60.3628C59.8003 83.3997 59.3628 79.2747 59.3628 75.0247C59.3628 70.7746 59.8003 66.5871 60.3628 62.5246H89.6127C90.1752 66.5871 90.6127 70.7746 90.6127 75.0247C90.6127 79.2747 90.1752 83.3997 89.6127 87.5247ZM91.1752 122.275C94.9252 115.337 97.8002 107.837 99.8002 100.025H118.238C112.238 110.337 102.675 118.337 91.1752 122.275ZM102.238 87.5247C102.738 83.3997 103.113 79.2747 103.113 75.0247C103.113 70.7746 102.738 66.6496 102.238 62.5246H123.363C124.363 66.5246 124.988 70.7121 124.988 75.0247C124.988 79.3372 124.363 83.5247 123.363 87.5247H102.238Z" fill="#00B0FF" fill-opacity="0.54"/>
</svg>
