<svg width="150" height="150" viewBox="0 0 150 150" fill="none" xmlns="http://www.w3.org/2000/svg">
<path opacity="0.5" d="M106.25 43.75H43.75V25H31.25V125H118.75V25H106.25V43.75Z" fill="#FFA000" fill-opacity="0.54"/>
<path fill-rule="evenodd" clip-rule="evenodd" d="M118.75 12.5H92.625C90 5.25 83.125 0 75 0C66.875 0 60 5.25 57.375 12.5H31.25C24.375 12.5 18.75 18.125 18.75 25V125C18.75 131.875 24.375 137.5 31.25 137.5H118.75C125.625 137.5 131.25 131.875 131.25 125V25C131.25 18.125 125.625 12.5 118.75 12.5ZM75 12.5C78.4375 12.5 81.25 15.3125 81.25 18.75C81.25 22.1875 78.4375 25 75 25C71.5625 25 68.75 22.1875 68.75 18.75C68.75 15.3125 71.5625 12.5 75 12.5ZM31.25 25V125H118.75V25H106.25V43.75H43.75V25H31.25Z" fill="#FFA000" fill-opacity="0.54"/>
</svg>
