<svg width="150" height="150" viewBox="0 0 150 150" fill="none" xmlns="http://www.w3.org/2000/svg">
<path d="M75 50C81.9036 50 87.5 44.4036 87.5 37.5C87.5 30.5964 81.9036 25 75 25C68.0964 25 62.5 30.5964 62.5 37.5C62.5 44.4036 68.0964 50 75 50Z" fill="#8F00FF" fill-opacity="0.54"/>
<path d="M131.25 100V87.5C117.25 87.5 105.25 81.5 96.25 70.75L87.875 60.75C85.5 57.875 82 56.25 78.3125 56.25H71.75C68.0625 56.25 64.5625 57.875 62.1875 60.75L53.8125 70.75C44.75 81.5 32.75 87.5 18.75 87.5V100C36.0625 100 51.1875 92.6875 62.5 79.6875V93.75L38.25 103.437C34.0625 105.125 31.25 109.25 31.25 113.812C31.25 120 36.25 125 42.4375 125H56.25V121.875C56.25 113.25 63.25 106.25 71.875 106.25H90.625C92.375 106.25 93.75 107.625 93.75 109.375C93.75 111.125 92.375 112.5 90.625 112.5H71.875C66.6875 112.5 62.5 116.688 62.5 121.875V125H107.562C113.75 125 118.75 120 118.75 113.812C118.75 109.25 115.937 105.125 111.75 103.437L87.5 93.75V79.6875C98.8125 92.6875 113.938 100 131.25 100Z" fill="#8F00FF" fill-opacity="0.54"/>
</svg>
